<svg width="64" height="64" viewBox="0 0 64 64" fill="none" xmlns="http://www.w3.org/2000/svg">
<path fill-rule="evenodd" clip-rule="evenodd" d="M27.132 4.59671C27.3967 4.59671 27.6507 4.49154 27.8379 4.30437C28.0251 4.11721 28.1302 3.86319 28.1302 3.59849V0.998217C28.1302 0.446973 27.6833 0 27.132 0C26.5808 0 26.1338 0.446973 26.1338 0.998217V3.59894C26.1342 4.15019 26.5808 4.59672 27.132 4.59671ZM61.9909 28.8981C62.0453 24.5964 61.3051 20.3219 59.8077 16.2886L59.6036 15.7066L59.5998 15.6957C58.5321 12.6428 56.5539 6.98689 52.5666 6.98689H52.4926C48.4836 6.98689 46.5033 12.6571 45.4401 15.7074L45.2337 16.2885C43.7364 20.3216 42.9958 24.596 43.0501 28.898C43.0073 29.7416 42.8665 37.4408 51.5225 38.8143V48.9096C51.5225 49.4613 51.9695 49.9078 52.5207 49.9078C53.072 49.9078 53.5189 49.4613 53.5189 48.9096V38.8143C62.1749 37.4404 62.0341 29.7412 61.9909 28.898L61.9909 28.8981ZM45.0429 28.9979C45.0464 28.9596 45.0473 28.9213 45.0464 28.8825C44.9943 24.8139 45.6957 20.7707 47.116 16.9575L47.3246 16.3635L47.3271 16.3564C48.1653 13.957 49.9029 8.98376 52.5113 8.98376H52.5469C55.1417 8.98376 56.879 13.9649 57.7156 16.3639L57.7157 16.364L57.7162 16.3657L57.9248 16.9597H57.9243C59.3441 20.7725 60.046 24.8157 59.9939 28.8847C59.9926 28.923 59.9939 28.9613 59.9975 28.9997C60.022 29.2755 60.4814 35.485 53.5184 36.7858V31.8557L56.2208 29.1533C56.5987 28.7616 56.5933 28.1391 56.2083 27.754C55.8233 27.3689 55.2007 27.3636 54.809 27.742L53.5188 29.0325V26.9518C53.5188 26.4006 53.0718 25.9536 52.5206 25.9536C51.9694 25.9536 51.5224 26.4006 51.5224 26.9518V32.0267L50.2319 30.7362C49.8402 30.3578 49.2176 30.3632 48.8326 30.7482C48.4475 31.1332 48.4417 31.7558 48.8201 32.1475L51.5225 34.8499V36.7844C44.604 35.4867 45.0212 29.2728 45.0434 28.9983L45.0429 28.9979ZM0.143577 49.3821C0.233154 48.8442 0.737602 48.4779 1.27638 48.559L1.27634 48.5591C1.41438 48.5813 15.2423 50.756 33.1451 43.785C33.4192 43.6655 35.6612 42.6941 38.8394 41.4044L31.7521 37.715C15.314 30.7618 1.39498 32.6878 1.25683 32.7083C0.994353 32.7475 0.726979 32.6807 0.51441 32.5225C0.301396 32.3643 0.160133 32.1276 0.121808 31.8652C0.0834767 31.6027 0.151219 31.3358 0.309861 31.1232C0.468503 30.9111 0.705577 30.7702 0.968057 30.7328C2.34069 30.559 3.72211 30.4628 5.10535 30.4454V24.9552L3.90749 26.5523C3.57684 26.9935 2.95117 27.0826 2.50999 26.752C2.06881 26.4213 1.97969 25.7957 2.31035 25.3545L5.10535 21.6281V19.9641L3.90749 21.5612C3.57684 22.0024 2.95117 22.0915 2.50999 21.7609C2.06881 21.4302 1.97969 20.8046 2.31035 20.3634L5.10535 16.637V14.4739L3.90749 16.0711C3.57684 16.5122 2.95117 16.6014 2.50999 16.2707C2.06881 15.94 1.97969 15.3144 2.31035 14.8732L5.305 10.8803C5.30953 10.8744 5.31483 10.8695 5.32014 10.8647C5.32476 10.8605 5.32938 10.8563 5.33352 10.8514C5.5247 10.6241 5.80633 10.4926 6.10357 10.4926C6.40081 10.4926 6.68245 10.6241 6.87363 10.8514C6.87776 10.8563 6.88238 10.8605 6.88699 10.8647L6.887 10.8647L6.887 10.8647C6.89231 10.8695 6.89761 10.8744 6.90215 10.8803L9.8968 14.8732C10.2275 15.3144 10.1383 15.94 9.69716 16.2707C9.2542 16.5933 8.63477 16.5047 8.29965 16.0711L7.10179 14.4739V16.6361L9.8968 20.3634C10.2275 20.8046 10.1383 21.4302 9.69716 21.7609C9.25375 22.0817 8.63566 21.9935 8.29965 21.5612L7.10179 19.9641V21.6267L9.8968 25.3545C10.2275 25.7957 10.1383 26.4213 9.69716 26.752C9.25375 27.0728 8.63566 26.9846 8.29965 26.5523L7.10179 24.9552V30.4369C9.34955 30.4704 11.5942 30.6228 13.8264 30.8937C13.8896 30.8759 13.9551 30.8647 14.0211 30.8598V30.8594C15.4453 30.7578 16.8503 30.637 18.2403 30.5172C23.3537 30.0764 28.1816 29.6607 33.4223 30.2043C35.9291 30.518 38.4131 30.9921 40.8591 31.6236L40.8956 31.6318C41.0303 31.662 41.164 31.692 41.2985 31.7234C41.4571 32.4792 41.6862 33.2181 41.9821 33.9311L41.7726 33.8831L41.7707 33.8826C41.3147 33.7781 40.858 33.6734 40.401 33.5653C38.0369 32.9544 35.6363 32.4945 33.2139 32.1883C29.3012 31.8483 25.3646 31.8701 21.4555 32.2529C25.2548 33.1518 28.9719 34.3692 32.5668 35.8924L32.5673 35.8919C32.5918 35.9017 32.6158 35.9129 32.639 35.9254L41.2833 40.4249C42.6933 39.8669 44.2116 39.2796 45.7753 38.6949C46.5089 39.2052 47.2994 39.6281 48.1305 39.9561C40.9044 42.5973 34.03 45.5759 33.9057 45.6299C22.591 50.0372 12.996 50.9204 7.12262 50.9204C5.05763 50.9472 2.99343 50.8157 0.948392 50.5278C0.411853 50.4298 0.0535597 49.9195 0.143577 49.3821ZM62.9083 35.9358H62.9889C63.5175 35.922 63.9435 35.4987 63.9604 34.9706C63.9778 34.4421 63.5803 33.992 63.054 33.9439C62.755 34.6622 62.3833 35.3476 61.9448 35.9903C62.2648 35.9559 62.5861 35.9381 62.9083 35.9359L62.9083 35.9358ZM30.0607 41.9229C30.612 41.9229 31.0589 41.4759 31.0589 40.9246C31.0589 40.3729 30.612 39.9264 30.0607 39.9264C29.5095 39.9264 29.0625 40.3729 29.0625 40.9246C29.0625 41.4759 29.5095 41.9229 30.0607 41.9229ZM19.0802 54.8985C19.6315 54.8985 20.0785 54.4516 20.0785 53.9003C20.0785 53.3491 19.6315 52.9021 19.0802 52.9021C18.529 52.9021 18.082 53.3491 18.082 53.9003C18.082 54.4516 18.529 54.8985 19.0802 54.8985ZM1.16705 61.8735C0.616695 61.8432 0.145662 62.2648 0.11535 62.8151C0.0846016 63.3655 0.506172 63.8365 1.05697 63.8668C1.13718 63.8713 1.45135 63.8864 1.97453 63.8864C5.55967 63.8864 18.9739 63.1712 34.432 53.3785H34.4316C39.288 50.111 44.3277 47.1249 49.5257 44.4342V42.2007C43.9299 45.0212 38.5208 48.198 33.3318 51.7118C16.2229 62.551 1.31583 61.8817 1.16639 61.8736L1.16705 61.8735ZM62.9082 37.9278C62.9443 37.9278 62.9786 37.9291 63.012 37.9323L63.012 37.9322C63.5574 37.951 63.9924 38.3952 63.9995 38.9416C63.9933 39.4884 63.5485 39.9287 63.0013 39.9287H62.9015C60.8854 39.9287 58.3003 40.635 55.5146 41.7206V40.4229C57.0623 40.0147 58.5111 39.2972 59.774 38.3137C60.8021 38.0753 61.8529 37.9461 62.9082 37.9278ZM46.0319 55.8968C46.5832 55.8968 47.0301 55.4498 47.0301 54.8985C47.0301 54.3473 46.5832 53.9003 46.0319 53.9003C45.4807 53.9003 45.0337 54.3473 45.0337 54.8985C45.0337 55.4498 45.4807 55.8968 46.0319 55.8968ZM33.0555 60.8878C33.0555 61.4391 32.6085 61.8861 32.0573 61.8861C31.5061 61.8861 31.0591 61.4391 31.0591 60.8878C31.0591 60.3366 31.5061 59.8896 32.0573 59.8896C32.6085 59.8896 33.0555 60.3366 33.0555 60.8878ZM8.09978 45.9157C8.65102 45.9157 9.098 45.4692 9.098 44.9175C9.098 44.3663 8.65102 43.9193 8.09978 43.9193C7.54854 43.9193 7.10156 44.3663 7.10156 44.9175C7.10156 45.4692 7.54854 45.9157 8.09978 45.9157ZM58.0106 45.9157C58.0106 46.4674 57.5636 46.9139 57.0124 46.9139C56.4611 46.9139 56.0142 46.4674 56.0142 45.9157C56.0142 45.3645 56.4611 44.9175 57.0124 44.9175C57.5636 44.9175 58.0106 45.3645 58.0106 45.9157ZM61.0055 58.8914C61.5568 58.8914 62.0038 58.4444 62.0038 57.8932C62.0038 57.3419 61.5568 56.895 61.0055 56.895C60.4543 56.895 60.0073 57.3419 60.0073 57.8932C60.0073 58.4444 60.4543 58.8914 61.0055 58.8914ZM16.0858 35.9335C16.0858 36.4848 15.6388 36.9318 15.0876 36.9318C14.5363 36.9318 14.0894 36.4848 14.0894 35.9335C14.0894 35.3819 14.5363 34.9353 15.0876 34.9353C15.6388 34.9353 16.0858 35.3819 16.0858 35.9335ZM3.09832 59.9889C3.64956 59.9889 4.09653 59.5419 4.09653 58.9907C4.09653 58.4394 3.64956 57.9924 3.09832 57.9924C2.54663 57.9924 2.1001 58.4394 2.1001 58.9907C2.1001 59.5419 2.54663 59.9889 3.09832 59.9889ZM19.9022 7.53698C19.6326 7.53698 19.3741 7.4278 19.1865 7.2344L17.2957 5.39527C17.1028 5.21167 16.9914 4.9581 16.986 4.69161C16.9811 4.42513 17.0827 4.16755 17.2685 3.97638C17.4544 3.7852 17.7093 3.67647 17.9758 3.67424C18.2423 3.67202 18.4985 3.77674 18.6879 3.96435L20.5773 5.80347C20.7761 5.98617 20.8924 6.24107 20.8999 6.51068C20.9075 6.78029 20.8059 7.04144 20.6179 7.23484C20.4298 7.42824 20.1718 7.53698 19.9022 7.53698ZM34.3819 7.51652C34.6417 7.51696 34.8917 7.41581 35.0775 7.23398L36.9692 5.39532C37.1658 5.21261 37.2803 4.95816 37.287 4.68989C37.2937 4.42161 37.1921 4.16181 37.0049 3.9693C36.8177 3.77679 36.5611 3.66761 36.2928 3.66672C36.0241 3.66583 35.7665 3.77278 35.578 3.96396L33.6863 5.80262H33.6867C33.3953 6.08604 33.3048 6.51741 33.4577 6.89397C33.6105 7.26995 33.9757 7.51633 34.3819 7.51652ZM23.6023 5.27535C23.0947 5.49104 22.5083 5.25441 22.2926 4.74684L21.2708 2.34266C21.0551 1.83547 21.2913 1.24902 21.7988 1.03334C22.3064 0.817657 22.8924 1.05429 23.1085 1.56142L24.1303 3.96604C24.346 4.47322 24.1098 5.05967 23.6023 5.27535ZM30.6823 5.28256C31.1885 5.49958 31.7754 5.26518 31.9928 4.75849L33.0218 2.35787C33.1305 2.11366 33.1372 1.83648 33.0396 1.58737C32.942 1.3387 32.7491 1.13906 32.5035 1.03389C32.258 0.928718 31.9804 0.926045 31.733 1.0272C31.4853 1.12836 31.2888 1.324 31.1871 1.57132L30.16 3.97194C29.9425 4.47818 30.176 5.06463 30.6822 5.28252L30.6823 5.28256ZM36.9569 10.6203C36.4471 10.8293 35.8642 10.5851 35.6552 10.0748C35.4467 9.56547 35.69 8.98258 36.1993 8.77314L38.6655 7.76467C39.1712 7.57305 39.7371 7.81949 39.9421 8.31993C40.1476 8.8199 39.9167 9.39298 39.4221 9.61134V9.6109L36.9569 10.6203ZM14.7339 9.93677L17.2268 10.8806C17.7388 11.0606 18.3003 10.7991 18.492 10.2915C18.6836 9.78436 18.4354 9.21662 17.9323 9.01342L15.4398 8.06958C15.192 7.976 14.9175 7.98446 14.676 8.0932C14.4349 8.20193 14.2464 8.40246 14.1528 8.64979C13.9576 9.16539 14.2174 9.74159 14.733 9.93675L14.7339 9.93677ZM21.6452 8.53744C23.0798 7.09179 25.0294 6.2745 27.066 6.2647C29.1026 6.27451 31.0522 7.09179 32.4867 8.53744C33.9216 9.98263 34.7242 11.9385 34.7188 13.975C34.7188 14.5263 34.2718 14.9733 33.7206 14.9733C33.1693 14.9733 32.7224 14.5263 32.7224 13.975C32.7425 12.4617 32.1555 11.0036 31.0923 9.9265C30.0295 8.84939 28.5794 8.24288 27.066 8.24288C25.5525 8.24288 24.1025 8.84941 23.0397 9.9265C21.9764 11.0035 21.3895 12.4616 21.4095 13.975C21.4095 14.5263 20.9626 14.9733 20.4113 14.9733C19.8601 14.9733 19.4131 14.5263 19.4131 13.975C19.4078 11.9385 20.2103 9.98263 21.6452 8.53744Z" fill="url(#paint0_linear_152_659)"/>
<defs>
<linearGradient id="paint0_linear_152_659" x1="-6.28427" y1="28.8533" x2="31.3362" y2="71.0588" gradientUnits="userSpaceOnUse">
<stop stop-color="#EBDCAB"/>
<stop offset="1" stop-color="#BA9725"/>
</linearGradient>
</defs>
</svg>
