<svg width="54" height="64" viewBox="0 0 54 64" fill="none" xmlns="http://www.w3.org/2000/svg">
<path fill-rule="evenodd" clip-rule="evenodd" d="M41.5611 1.05714C42.8593 7.38262 44.7258 19.7554 38.5049 23.9794C34.9902 26.3656 31.5112 26.5057 28.7281 25.3495V51.7461H26.1281V42.5523C24.3995 44.4921 21.7384 45.8219 18.1438 45.8403C10.6241 45.8769 5.16435 34.6189 2.65578 28.6689C2.48167 28.2649 2.53837 27.7805 2.84104 27.4221C3.26783 26.918 4.0223 26.8551 4.52676 27.2814C8.51019 30.6412 16.8113 26.2698 22.0468 27.6381C23.7392 28.0805 25.0994 28.9114 26.1285 29.9823V23.7319C22.6437 20.7015 21.4196 15.3007 24.9896 11.1788C28.5325 7.08909 37.8502 5.99618 39.2342 0.972521C39.4088 0.335469 40.0668 -0.0395366 40.7038 0.135023C41.156 0.258681 41.4766 0.626989 41.5614 1.05823L41.5611 1.05714ZM26.128 36.5943V35.7925C25.9816 33.184 24.4034 30.7278 21.4369 29.9523C17.2526 28.859 11.2275 31.9148 6.18206 30.7009C8.20572 34.9719 12.7843 43.4746 18.1329 43.4495C21.591 43.4321 23.9119 41.9026 25.1289 39.8696C21.1811 39.7442 17.4285 38.638 14.6695 36.8076C11.1971 34.5049 11.4163 34.1129 15.3423 35.3156C18.2373 36.2026 21.9101 37.0468 26.128 36.5945L26.128 36.5943ZM26.6901 20.8731C30.4235 18.8598 32.9753 16.0856 34.8606 13.7169C37.4173 10.5045 37.8195 10.7035 36.2592 14.5669C35.0194 17.6365 32.5507 20.6718 29.3672 23.0089C31.5208 23.9963 34.3002 23.9441 37.1609 22.0026C41.5855 18.9986 40.5506 9.39689 39.8024 4.72946C36.3291 8.58523 29.6323 9.47369 26.8001 12.7428C24.5881 15.296 24.9207 18.5794 26.6894 20.8728L26.6901 20.8731Z" fill="url(#paint0_linear_152_686)"/>
<path fill-rule="evenodd" clip-rule="evenodd" d="M14.4834 54.704C8.59589 53.0687 1.09486 58.0157 0.452576 63.9661H53.5829C52.7784 56.7218 45.6838 53.2571 40.5246 57.0499C36.2562 44.0717 20.3657 44.8991 14.4823 54.704H14.4834Z" fill="url(#paint1_linear_152_686)"/>
<defs>
<linearGradient id="paint0_linear_152_686" x1="-1.47749" y1="23.4209" x2="28.8725" y2="49.9934" gradientUnits="userSpaceOnUse">
<stop stop-color="#EBDCAB"/>
<stop offset="1" stop-color="#BA9725"/>
</linearGradient>
<linearGradient id="paint1_linear_152_686" x1="-4.86609" y1="54.84" x2="0.24435" y2="73.1429" gradientUnits="userSpaceOnUse">
<stop stop-color="#EBDCAB"/>
<stop offset="1" stop-color="#BA9725"/>
</linearGradient>
</defs>
</svg>
