<svg width="34" height="34" viewBox="0 0 34 34" fill="none" xmlns="http://www.w3.org/2000/svg">
<path d="M17.0007 22.6663C20.1303 22.6663 22.6673 20.1293 22.6673 16.9997C22.6673 13.8701 20.1303 11.333 17.0007 11.333C13.871 11.333 11.334 13.8701 11.334 16.9997C11.334 20.1293 13.871 22.6663 17.0007 22.6663Z" stroke="#2268BA" stroke-width="2" stroke-linecap="round" stroke-linejoin="round"/>
<path d="M4.25 24.75V9.25C4.25 6.48858 6.48858 4.25 9.25 4.25H24.75C27.5114 4.25 29.75 6.48858 29.75 9.25V24.75C29.75 27.5114 27.5114 29.75 24.75 29.75H9.25C6.48858 29.75 4.25 27.5114 4.25 24.75Z" stroke="#2268BA" stroke-width="2"/>
<path d="M24.791 9.22225L24.8052 9.20642" stroke="#2268BA" stroke-width="2" stroke-linecap="round" stroke-linejoin="round"/>
</svg>
