<svg width="75" height="51" viewBox="0 0 75 51" fill="none" xmlns="http://www.w3.org/2000/svg">
<g clip-path="url(#clip0_472_2197)">
<path d="M74.8087 1.74207L74.808 3.08154C74.808 3.08154 67.9945 2.86432 63.4355 4.21416C56.8899 6.15219 50.7219 10.2028 39.9107 13.3051C37.6748 13.9467 24.3427 12.0928 15.1898 14.3417C5.60388 16.6972 0.232422 23.1444 0.232422 23.1444L0.239679 20.3226C0.239679 20.3226 7.92118 9.24916 23.4036 10.195C39.0874 11.1537 42.2233 10.9925 50.2776 7.56344C58.2445 4.17157 70.3864 0.888479 74.8087 1.74207Z" fill="white"/>
<g opacity="0.6" filter="url(#filter0_f_472_2197)">
<path d="M0.699219 22.5106C0.841448 22.361 1.01578 22.1827 1.22165 21.9806C1.0221 22.1764 0.852178 22.3501 0.712405 22.4968C0.707979 22.5014 0.703584 22.506 0.699219 22.5106Z" fill="#FFE400"/>
<path d="M74.3297 2.95266C74.3344 2.95272 74.3391 2.95278 74.3437 2.95284C74.6418 2.95664 74.8082 2.96194 74.8082 2.96194" fill="#FFE400"/>
<path d="M0.717903 20.3589L0.714171 21.81C0.769008 21.755 0.826456 21.6981 0.886502 21.6391C1.55271 20.9853 2.53965 20.0915 3.82943 19.124C6.4079 17.1897 10.2051 14.9543 15.0758 13.7575C19.7185 12.6168 25.3948 12.5205 30.1546 12.6227C31.6201 12.6542 33.0135 12.705 34.2629 12.7506L34.263 12.7506L34.2631 12.7507C35.0385 12.779 35.7584 12.8052 36.4057 12.8236C37.2576 12.8478 37.987 12.8584 38.57 12.8437C39.1669 12.8286 39.5644 12.7871 39.7789 12.7256C45.1534 11.1833 49.375 9.40531 53.0792 7.76588C53.5935 7.53828 54.0985 7.31301 54.5957 7.09118L54.5962 7.09097C57.671 5.71931 60.4502 4.47949 63.2998 3.63578C65.6351 2.94433 68.5241 2.65913 70.8075 2.5442C71.9536 2.48651 72.9558 2.47136 73.6718 2.47062C73.9307 2.47036 74.1523 2.47198 74.33 2.47416L74.3302 2.03134C73.3215 1.90533 71.9406 1.95889 70.2912 2.16958C68.4304 2.40729 66.2681 2.83937 63.9878 3.40548C59.4265 4.53788 54.4236 6.1988 50.4651 7.88407C46.4144 9.60867 43.5658 10.526 39.7462 10.8814C35.9513 11.2346 31.2078 11.0318 23.3745 10.553C15.7606 10.0878 10.0733 12.5763 6.2869 15.1788C4.39218 16.4811 2.97374 17.812 2.03059 18.8153C1.55918 19.3167 1.20705 19.7358 0.974045 20.0276C0.86016 20.1702 0.774786 20.2824 0.717903 20.3589Z" fill="#FFE400"/>
</g>
<path d="M74.7991 38.007C74.7991 38.007 70.5978 34.6343 64.6417 37.585C61.16 39.3099 52.6046 49.5675 47.9591 44.2551C45.3304 41.2493 38.2386 44.7225 34.7077 47.5656C32.1597 49.6181 28.8425 50.9609 24.2441 48.3042C19.7059 45.6816 17.2095 47.3944 14.4408 48.9634C8.64394 52.2499 0.234375 48.6565 0.234375 48.6565L0.237724 40.7566L71.5489 24.9385L74.7991 33.3047V38.007Z" fill="white"/>
<path d="M50.5855 8.65336C44.8854 11.341 40.1668 13.075 24.4829 12.1164C9.00058 11.1705 0.238615 20.7193 0.238615 20.7193L0.191406 47.4995C0.191406 47.4995 3.83096 49.034 6.23303 48.6561C8.17482 48.3769 8.67889 46.5197 8.76094 45.5074C8.84332 44.4962 9.12362 44.1323 9.3044 43.9568C9.48463 43.7804 10.1863 43.2732 10.6245 44.1758C11.0633 45.0768 10.1211 45.7323 9.86118 45.8374C9.60042 45.9425 8.67889 46.4794 8.9379 47.1768C9.19659 47.8735 10.016 48.4247 11.478 47.8999C12.7999 47.3172 15.8461 44.2117 19.6201 42.8933C21.3688 42.2826 22.6951 42.656 24.9133 44.2397C27.1315 45.8235 28.4148 44.6719 28.9154 44.3793C29.416 44.0853 30.394 43.1991 31.1691 42.2018C32.6881 40.2491 34.5495 40.557 35.5641 40.2564C37.6514 39.6369 38.283 37.18 38.7818 36.3282C39.629 34.8798 41.2822 34.6564 42.3411 35.3207C43.4009 35.9857 43.2972 37.5938 41.8156 38.0179C40.4704 38.4037 39.8134 38.4699 39.3516 39.2298C38.8901 39.9904 39.0279 41.2515 41.3282 41.9232C43.628 42.5942 45.5322 41.0471 46.3738 40.4784C47.2154 39.9102 51.1046 36.3643 51.1046 36.3643C51.1046 36.3643 52.2365 35.5014 52.9248 36.4297C53.7311 37.5152 51.8817 37.9738 51.8817 37.9738C51.8817 37.9738 50.7411 38.0598 50.5792 38.9409C50.4175 39.8206 51.338 41.7093 56.1046 38.8123C60.8715 35.9152 64.3728 33.956 69.1314 34.1448C73.1021 34.3013 74.798 36.0435 74.798 36.0435L74.8076 2.06819C74.3758 1.98486 73.8729 1.94531 73.308 1.94539C68.0883 1.94579 57.6528 5.3217 50.5855 8.65336Z" fill="url(#paint0_linear_472_2197)"/>
<path d="M54.1767 33.4584C54.1767 33.4584 53.1729 33.6348 53.0678 34.4182C52.9623 35.2016 53.896 35.3626 54.5887 35.1098C55.2814 34.8563 56.1144 33.5121 54.1767 33.4584Z" fill="white"/>
<path d="M56.4678 31.8261C56.4678 31.8261 55.5667 31.8343 55.6939 32.6684C55.8203 33.5024 57.496 32.9969 57.6687 32.1179C57.8417 31.2382 59.0437 30.9273 59.4306 30.7216C59.8168 30.5158 60.3341 29.2525 58.7041 29.0761C57.0742 28.8982 57.1982 31.0221 57.0263 31.3C56.8544 31.5778 56.811 31.7872 56.4678 31.8261Z" fill="white"/>
<path d="M61.199 23.268C61.207 23.268 61.2291 23.2717 61.2666 23.2717C61.3327 23.2717 61.4147 23.2596 61.5121 23.2356C61.5811 23.2191 61.7047 23.1714 61.9089 23.0383C61.9824 22.9913 62.0464 22.9483 62.1015 22.9101C62.1937 22.8447 62.2984 22.8105 62.4043 22.8105C62.5071 22.8105 62.6056 22.8428 62.6854 22.8998L63.4362 17.1642L63.442 17.1248L63.5397 16.3057C63.5787 15.9702 63.596 15.6976 63.5897 15.4958C63.5812 15.1471 63.5327 15.0009 63.511 14.9528C63.5007 14.9513 63.4857 14.9495 63.4659 14.9495C63.4251 14.9495 63.3538 14.956 63.2436 14.9825C63.1251 15.0112 63.0003 15.07 62.8687 15.1592C62.7717 15.225 62.6827 15.2868 62.6016 15.3463C62.5255 15.4014 62.4116 15.4621 62.2698 15.4621C62.1856 15.4621 62.1058 15.4403 62.0361 15.4014C61.824 16.9485 61.5077 19.295 61.2696 21.0662C61.2336 21.3087 61.1972 21.6037 61.1574 21.9731C61.1208 22.3193 61.1042 22.5765 61.1086 22.7374C61.1181 23.1126 61.1813 23.2415 61.1972 23.268H61.199ZM57.9264 15.9107C57.8728 15.9107 57.8102 15.9188 57.7405 15.9357C57.5053 15.9927 57.2737 16.1911 57.0533 16.5251C56.7902 16.9227 56.5557 17.4361 56.3559 18.0501C56.1574 18.6671 56.0031 19.381 55.8995 20.1703C55.7955 20.9589 55.7524 21.7629 55.7724 22.5599C55.7818 22.9189 55.809 23.246 55.8524 23.5289C55.8936 23.795 55.9527 24.0081 56.0288 24.1627C56.0891 24.2925 56.1611 24.3781 56.242 24.4218C56.2779 24.4409 56.3192 24.4505 56.3724 24.4505C56.4209 24.4505 56.4771 24.4431 56.5385 24.4273C56.6953 24.3899 56.8571 24.273 57.0213 24.0823C57.2102 23.86 57.3885 23.5966 57.5519 23.3037L58.399 16.9844C58.3938 16.8463 58.3755 16.6832 58.3438 16.4957C58.3152 16.3304 58.2725 16.1981 58.2174 16.1048C58.1395 15.9695 58.0675 15.9405 58.0432 15.9302C58.0131 15.9174 57.9735 15.9107 57.9264 15.9107M32.8946 29.9C32.9084 30.3129 32.9957 30.6311 33.1552 30.845C33.2381 30.9553 33.3236 31.0001 33.4492 31.0001C33.5006 31.0001 33.5586 30.992 33.622 30.9773C33.8348 30.9259 34.0673 30.7216 34.2941 30.3843C34.561 29.9866 34.7925 29.4597 34.9816 28.8196C35.1845 28.1302 35.3361 27.4078 35.4318 26.6714C35.5271 25.9387 35.5637 25.1215 35.5409 24.2418C35.5337 23.8997 35.5077 23.5745 35.4647 23.2731C35.4259 23.0127 35.3653 22.7984 35.2864 22.6379C35.2231 22.5041 35.1534 22.4195 35.0696 22.3729C35.0404 22.3571 34.9981 22.3479 34.9458 22.3479C34.8972 22.3479 34.8411 22.3553 34.7797 22.371C34.5941 22.4147 34.3996 22.5588 34.1993 22.7998C33.9812 23.0622 33.8173 23.297 33.7111 23.4988L32.8946 29.9ZM27.6613 31.868C27.6704 31.868 27.6916 31.8717 27.7275 31.8717C27.7944 31.8717 27.8771 31.86 27.9744 31.8357C28.0425 31.8195 28.1636 31.7733 28.3721 31.6395C28.4445 31.5917 28.5099 31.5477 28.5674 31.5072C28.6593 31.444 28.7622 31.4109 28.866 31.4109C29.0114 31.4109 29.1469 31.4749 29.2377 31.5851C29.5904 28.8379 29.9851 25.7627 29.9851 25.7627L30.0863 24.8918C30.1267 24.5588 30.1438 24.2888 30.1385 24.0904C30.1301 23.7446 30.0777 23.598 30.0521 23.5473C30.0432 23.5458 30.0303 23.5451 30.0132 23.5451C29.9732 23.5451 29.9017 23.5509 29.7905 23.5781C29.6794 23.6046 29.5527 23.6656 29.4131 23.7571C29.2957 23.8332 29.1948 23.9041 29.1065 23.9691C29.0263 24.0308 28.9248 24.0658 28.8182 24.0658C28.7004 24.0658 28.5915 24.0224 28.5059 23.9482C28.2942 25.4934 27.9727 27.8753 27.7318 29.6663C27.6962 29.9088 27.6597 30.2034 27.6201 30.5731C27.5834 30.9193 27.5668 31.1765 27.5714 31.3375C27.5795 31.7093 27.6414 31.8401 27.6585 31.868H27.6613ZM24.3893 24.5108C24.3352 24.5108 24.2724 24.5195 24.2037 24.5357C23.9668 24.5938 23.7354 24.7919 23.515 25.1259C23.2515 25.5235 23.0175 26.0368 22.8181 26.6512C22.6199 27.2663 22.4666 27.9796 22.3619 28.771C22.2572 29.5651 22.2142 30.3695 22.2354 31.1611C22.2436 31.5123 22.27 31.8379 22.3141 32.1297C22.3566 32.3942 22.4163 32.6088 22.4914 32.7654C22.553 32.8954 22.6221 32.9793 22.7037 33.0234C22.7374 33.0417 22.7795 33.0505 22.8339 33.0505C22.8825 33.0505 22.9394 33.0432 23.0007 33.0277C23.1578 32.9903 23.3186 32.8742 23.4819 32.6823C23.671 32.4604 23.8502 32.1994 24.0146 31.9026L24.861 25.5852C24.8553 25.4463 24.837 25.2824 24.8051 25.0958C24.7772 24.9326 24.7354 24.7985 24.6803 24.7066C24.626 24.6129 24.57 24.5571 24.5059 24.5291C24.4754 24.5174 24.4363 24.5108 24.3893 24.5108M9.67706 37.1088C9.72866 37.1109 9.77978 37.1117 9.83121 37.1117C13.3101 37.1109 14.3348 33.2629 14.6359 30.9685C14.8123 29.6269 15.0524 26.3143 13.4777 24.5195C13.088 24.0749 12.6039 23.7516 12.031 23.5524C11.8971 23.8281 11.4373 24.8635 11.2516 26.3213C11.145 27.1623 10.9282 28.706 10.6996 30.3405C10.4447 32.1657 10.1801 34.0522 10.0377 35.1797C9.93536 35.9961 9.79006 36.6663 9.67706 37.1088M4.49517 37.5761C4.22523 37.5761 4.04796 37.6879 4.00641 37.8826C3.97188 38.0502 4.04692 38.2949 4.3722 38.4375C4.55833 38.5191 4.73671 38.5602 4.9017 38.5602C5.39022 38.5602 5.74006 38.1847 5.94477 37.8782C5.59588 37.7562 5.08018 37.6085 4.5537 37.5777C4.53352 37.5769 4.51454 37.5761 4.49517 37.5761M5.08727 40.4689C3.99851 40.4689 3.08575 40.011 2.58432 39.2128C2.19062 38.586 2.10808 37.8238 2.37427 37.2704C2.78368 36.4194 3.59628 35.9696 4.72347 35.9696C5.3013 35.9696 5.88815 36.0924 6.36439 36.2467C6.59293 34.7071 7.23855 30.2674 7.47818 27.6335C7.69381 25.2582 9.29158 23.9427 10.3886 23.3121H10.3851C7.28432 23.3569 5.66016 25.0215 4.85226 26.3686C5.85936 26.5556 6.50785 27.6548 6.30003 28.8262C6.2415 29.1651 6.11079 29.4891 5.92379 29.7684C5.76558 30.0657 5.49477 30.3108 5.16056 30.4621C4.90577 30.5937 4.64006 30.6606 4.36837 30.6606C4.27284 30.6606 4.17834 30.6517 4.08448 30.6348C3.65418 30.5599 3.26853 30.31 2.99477 29.9333C2.26207 29.118 2.22898 27.8201 2.90473 26.3649C4.39245 23.1651 7.90784 20.9303 11.4535 20.9303C13.9767 20.9303 16.1224 22.0863 17.4976 24.1852C18.2359 25.3126 18.6949 27.0977 18.7447 29.0419C18.77 28.9218 18.7967 28.8013 18.8263 28.6829C18.8692 28.5087 18.9168 28.3397 18.9657 28.1718L19.03 27.9403C19.2495 27.216 19.523 26.5413 19.8463 25.9218C20.2943 25.087 20.8303 24.3752 21.4421 23.8041C22.0737 23.2115 22.7622 22.8216 23.4884 22.6455C23.8161 22.5665 24.1248 22.5272 24.4076 22.5272C24.5937 22.5272 24.774 22.5441 24.9417 22.5783C25.264 22.6437 25.5497 22.7595 25.7948 22.9234L27.9626 21.7512L27.9783 21.7423L27.9937 21.7357C28.035 21.717 28.1196 21.6872 28.2253 21.6872C28.3804 21.6872 28.525 21.7537 28.6218 21.8724C28.6969 21.9643 28.7769 22.1281 28.7247 22.3854C28.7172 22.4233 28.6944 22.5868 28.6586 22.8439C29.024 22.2167 29.6632 21.3388 30.5464 20.921C30.7389 20.8347 30.9162 20.7722 31.0814 20.7311C31.3396 20.6686 31.5716 20.6384 31.7827 20.6384C31.8645 20.6384 31.9445 20.6429 32.0208 20.6509C32.3245 20.6859 32.6 20.7965 32.8397 20.9791C33.0152 21.1096 33.1677 21.2826 33.2915 21.4917C33.6456 21.0096 34.0003 20.6116 34.3472 20.3041C34.8511 19.858 35.3571 19.5706 35.8519 19.4501C36.1158 19.3862 36.3689 19.3538 36.6067 19.3538C37.3622 19.3538 37.9728 19.6687 38.4208 20.2909C38.9625 21.0405 39.2436 22.1146 39.2804 23.5753C39.3059 24.6246 39.1995 25.676 38.9625 26.6982C38.957 26.7236 38.9507 26.7486 38.9441 26.7739C39.0003 26.7541 39.0566 26.7368 39.1141 26.7229C39.2278 26.695 39.3417 26.6803 39.4529 26.6803C39.7099 26.6803 39.9522 26.7549 40.1718 26.9007C40.2152 26.9294 40.2579 26.9588 40.2993 26.9896C40.6494 26.0526 40.9328 24.9804 41.146 23.7923C41.4011 22.356 41.5464 21.0001 41.5747 19.7573C41.5691 19.7573 41.5619 19.7569 41.5514 19.7569C41.5261 19.7569 41.4941 19.7617 41.4583 19.769C41.3579 19.79 41.27 19.7999 41.1881 19.7999C40.8088 19.7999 40.6229 19.564 40.5794 19.363C40.4977 18.9838 40.8182 18.6534 41.1716 18.4936L41.1981 18.4815L41.2257 18.4734L41.651 18.3448C42.3385 18.15 43.7188 17.7304 43.7325 17.726L43.7489 17.7215L43.7654 17.7179C43.7911 17.7113 43.8893 17.6922 44.0272 17.6922C44.295 17.6922 45.1867 17.784 45.4078 18.9643C45.5611 19.7466 45.6952 20.5496 45.8075 21.3462C45.9009 22.0164 45.9863 22.719 46.061 23.4466L48.2991 17.5518L48.3074 17.5304L48.3173 17.5096C48.4736 17.1997 48.8232 16.6501 49.4173 16.4414C49.4807 16.4179 49.5597 16.391 49.6389 16.3635L51.3619 15.8291C51.394 15.8188 51.4519 15.8049 51.5224 15.8049C51.6757 15.8049 51.819 15.8703 51.9166 15.9849C51.9909 16.0731 52.0705 16.2274 52.0303 16.4652C51.9992 16.6581 51.3326 21.782 51.078 23.7399C51.0459 23.9691 51.0112 24.2667 50.9733 24.6368C50.9279 25.0759 50.9211 25.2978 50.925 25.4074C50.9333 25.7616 50.9839 25.899 51.0038 25.9402C51.0157 25.9424 51.0352 25.9454 51.0635 25.9454C51.1095 25.9454 51.1892 25.9387 51.3124 25.9093C51.3878 25.8902 51.5208 25.8417 51.7119 25.7168C51.8007 25.6605 51.8741 25.6102 51.9375 25.5639C52.0569 25.4779 52.1794 25.4338 52.3013 25.4338C52.3241 25.4338 52.3461 25.4353 52.3682 25.4383C52.1669 24.8238 52.0555 24.0845 52.0339 23.2276C52.0065 22.1505 52.1173 21.0927 52.3637 20.0828C52.6085 19.0764 52.9524 18.1478 53.3846 17.3222C53.8307 16.4883 54.3668 15.7769 54.9794 15.203C55.6129 14.611 56.3015 14.2215 57.0269 14.0455C57.3524 13.9661 57.66 13.9265 57.9433 13.9265C58.1303 13.9265 58.3103 13.9441 58.4794 13.9782C58.801 14.0433 59.0873 14.1587 59.333 14.3233L61.5003 13.1511L61.5146 13.143L61.529 13.1364C61.5708 13.1173 61.6561 13.0856 61.7622 13.0856C61.9185 13.0856 62.0626 13.1537 62.1595 13.2717C62.2345 13.3643 62.3142 13.5274 62.2621 13.7843C62.2566 13.8132 62.2429 13.9107 62.2205 14.0653C62.5512 13.5244 63.0259 12.902 63.6271 12.5176C63.9505 12.3295 64.25 12.2045 64.534 12.1354C64.7612 12.0804 64.9768 12.0528 65.1764 12.0528C65.7003 12.0528 66.1311 12.2365 66.4581 12.5985C66.8692 13.0541 67.0879 13.6832 67.1078 14.4684C67.1144 14.7496 67.1096 15.0358 67.0949 15.3206C67.0879 15.4757 67.074 15.6425 67.0534 15.8247C67.4083 15.6123 67.8155 15.4511 68.2381 15.4511C68.4015 15.4511 68.5585 15.4749 68.7084 15.5216L69.0508 12.7619C69.0655 12.6903 69.3315 10.9732 72.1276 10.3937L72.1713 10.3848L72.2283 10.3838C72.3771 10.3838 72.5168 10.4474 72.6115 10.5583C72.6688 10.6252 72.7601 10.7711 72.7255 10.9927C72.7039 11.1337 72.0891 15.8174 71.7664 18.2735C71.734 18.5028 71.6984 18.8005 71.6606 19.1709C71.6242 19.5302 71.6076 19.7889 71.6121 19.9415C71.6202 20.2879 71.6708 20.4301 71.6922 20.4742C71.7043 20.4764 71.7235 20.4786 71.7517 20.4786C71.798 20.4786 71.8785 20.472 72.0023 20.443C72.1125 20.4162 72.2485 20.3511 72.4043 20.2497C72.5065 20.185 72.5909 20.1277 72.6601 20.0755C72.7725 19.9925 72.8838 19.9536 72.9952 19.9536H73.2488L73.3905 20.1777C73.4548 20.285 73.5038 20.4628 73.3751 20.6991C73.0639 21.2793 72.4484 22.3251 71.8421 22.7925L71.8296 22.8013L71.8178 22.8098C71.4886 23.0299 71.1167 23.1919 70.7143 23.2901C70.5111 23.3386 70.3149 23.3635 70.1287 23.3635C69.6492 23.3635 69.2269 23.2049 68.8723 22.8925C68.3935 22.4691 68.1403 21.8253 68.1183 20.978C68.109 20.554 68.109 20.2574 68.1208 20.0468C68.1326 19.8312 68.166 19.5111 68.2204 19.0959L68.4291 17.4879C68.1469 17.4966 67.4429 17.7274 66.5716 19.5155L66.1898 22.4343C66.1763 22.5151 65.8856 24.2639 63.1215 24.9319C63.068 24.944 63.0259 24.948 62.9838 24.948C62.8191 24.948 62.6718 24.8734 62.5784 24.7452C62.4961 24.6305 62.4675 24.4836 62.4968 24.3403L62.5236 24.1352C62.4667 24.2411 62.405 24.352 62.34 24.4659C61.8009 25.414 60.9925 25.8387 60.4094 26.0269C60.3457 26.0471 60.2826 26.0673 60.2175 26.0835C59.9776 26.1416 59.7563 26.1702 59.5516 26.1702C59.1625 26.1702 58.8208 26.0699 58.5357 25.8726C58.3206 25.7249 58.138 25.5403 57.9881 25.3218C57.9458 25.382 57.9043 25.4419 57.8632 25.5007C57.6853 25.752 57.4604 26.014 57.194 26.2801C56.96 26.5163 56.7057 26.7309 56.4389 26.9155C56.1531 27.1146 55.8296 27.2597 55.4798 27.3453C55.2137 27.4096 54.9584 27.4416 54.7196 27.4416C53.964 27.4416 53.3507 27.1285 52.8999 26.5116C52.8301 26.4153 52.7636 26.3135 52.7026 26.2048C52.5159 26.6671 52.0468 27.6298 51.1868 28.2442L51.1251 28.2875L51.1011 28.3029C51.0525 28.336 51.0078 28.3624 50.9617 28.3883C50.6834 28.5499 50.3787 28.6705 50.0543 28.7472C49.8546 28.7969 49.657 28.8218 49.4704 28.8218C48.9906 28.8218 48.5692 28.6616 48.2172 28.3459C47.7446 27.9219 47.4947 27.2773 47.4725 26.4318C47.4633 26.0203 47.4645 25.7119 47.4763 25.49C47.4874 25.2685 47.5196 24.9591 47.5765 24.5461C47.6134 24.2925 47.6537 24.0176 47.6939 23.7362L46.1342 27.784C45.8588 28.45 45.2003 29.5916 43.8462 29.8745L43.8016 29.8837H43.7523C43.4677 29.8837 43.2559 29.625 43.2366 29.3825C43.0751 27.2631 42.9557 25.744 42.8813 24.8238C42.8653 24.6335 42.8381 24.3766 42.8041 24.0875C42.717 24.6166 42.622 25.1104 42.5203 25.5686C42.2441 26.8026 41.9346 27.84 41.5994 28.6517C41.2653 29.4535 40.9303 30.0529 40.5759 30.4879C40.1812 30.9722 39.8119 31.2492 39.4483 31.3375C39.2952 31.3742 39.147 31.3933 39.0075 31.3933C38.6375 31.3933 38.3119 31.2588 38.0646 31.0067C37.8352 30.7715 37.6837 30.4497 37.6139 30.0454C37.2411 30.6403 36.8288 31.1515 36.3836 31.5667C35.7777 32.1333 35.088 32.5133 34.3371 32.6948C33.9719 32.7838 33.6429 32.8286 33.3604 32.8286C33.1976 32.8286 33.0441 32.8139 32.9061 32.7844C32.7754 32.7566 32.6503 32.7191 32.5301 32.6721L32.3962 33.7135L32.251 34.8018C32.229 34.9283 31.8114 37.9289 28.1417 38.9792L28.1212 38.985L28.1002 38.9894C28.0754 38.9938 28.0049 39.0049 27.9332 39.0049C27.6072 39.0049 27.4777 38.802 27.4371 38.7146C27.3957 38.6264 27.3245 38.3934 27.5439 38.131L27.5714 38.0987L27.6036 38.0722C28.0212 37.7312 28.5503 37.061 28.6953 35.8064C28.7 35.7734 28.8901 34.2933 29.1228 32.4781C29.0295 32.6574 28.9219 32.8543 28.8015 33.0667C28.2334 34.0662 27.3482 34.4741 26.8716 34.6277L26.8039 34.6497C26.7608 34.6622 26.7178 34.6747 26.6733 34.6857C26.4402 34.7415 26.219 34.7702 26.0141 34.7702C25.6259 34.7702 25.2834 34.6703 24.9976 34.4734C24.783 34.3257 24.6005 34.1411 24.4507 33.9229C24.4076 33.9832 24.3653 34.0441 24.324 34.1029C24.1495 34.3498 23.9244 34.6116 23.6574 34.8798C23.4253 35.1157 23.1696 35.3295 22.9019 35.5155C22.6137 35.7161 22.2905 35.8601 21.9416 35.9454C21.6754 36.0101 21.42 36.0416 21.1822 36.0416C20.4247 36.0416 19.8123 35.7285 19.3613 35.1104C18.8374 34.3911 18.5545 33.3702 18.5012 31.993C18.2913 33.0645 17.9421 34.111 17.4332 35.0509C16.4418 36.8861 14.4467 39.0718 10.5732 39.0718C10.2527 39.0718 9.92045 39.0563 9.58536 39.0262C9.19764 38.9909 9.0529 38.9534 8.83041 38.8887C8.81661 38.8851 8.80194 38.8807 8.78743 38.877C8.50928 39.2055 7.93711 39.7516 6.98982 40.0947C6.31111 40.3424 5.67021 40.4689 5.08727 40.4689" fill="#212368"/>
<path d="M62.7978 24.5784C62.7287 24.5784 62.6699 24.5501 62.6333 24.4982C62.5851 24.4306 62.5942 24.3535 62.6031 24.3153L63.5448 17.1292L63.6025 16.6464L63.6481 16.2671C63.6882 15.9174 63.7054 15.63 63.7002 15.4136C63.6882 14.8965 63.5901 14.7195 63.5331 14.6599C63.4817 14.6066 63.3964 14.5801 63.2796 14.5801C63.1969 14.5801 63.0984 14.5937 62.9867 14.6213C62.8353 14.6569 62.6773 14.7305 62.5171 14.84C62.4164 14.9076 62.3223 14.9741 62.2378 15.0355C62.2022 15.0619 62.1474 15.092 62.0827 15.092C62.0203 15.092 61.9644 15.0619 61.9332 15.0116C61.8733 14.916 61.9277 14.8057 61.9454 14.7691C62.1614 14.3258 62.7563 13.2342 63.601 12.6929C63.8903 12.525 64.1636 12.4103 64.4191 12.3486C64.6215 12.2997 64.8132 12.275 64.9887 12.275C65.4266 12.275 65.7845 12.4257 66.0527 12.7234C66.4144 13.1254 66.6069 13.6898 66.6257 14.4019C66.6319 14.6746 66.6282 14.9539 66.6136 15.2317C66.5995 15.5116 66.564 15.8453 66.5088 16.2249L66.4868 16.3935C66.8888 16.0496 67.4624 15.6734 68.0525 15.6734C68.3119 15.6734 68.5514 15.7458 68.765 15.8898L69.1589 12.7248C69.1718 12.6653 69.4084 11.147 72.0012 10.6101L72.0163 10.6076L72.0424 10.6065C72.1045 10.6065 72.1622 10.6325 72.2011 10.6774C72.2297 10.7119 72.2621 10.7744 72.2467 10.8729C72.2309 10.9728 71.611 15.6844 71.2861 18.1618C71.2541 18.3911 71.2192 18.6923 71.181 19.0665C71.1439 19.4236 71.1259 19.7037 71.1293 19.8771C71.1425 20.3974 71.245 20.5687 71.3045 20.6242C71.3588 20.6759 71.4463 20.7006 71.5654 20.7006C71.6558 20.7006 71.7639 20.6855 71.8858 20.6565C72.0292 20.6216 72.196 20.5433 72.3797 20.4254C72.4878 20.3563 72.5782 20.2938 72.6524 20.2379C72.71 20.1954 72.7604 20.1754 72.8081 20.1754H72.8927L72.9497 20.2545C73.0036 20.3453 72.9514 20.4415 72.9294 20.4827C72.6861 20.9354 72.0585 22.036 71.4743 22.4838C71.1667 22.6915 70.8275 22.8388 70.4572 22.9285C70.2786 22.9714 70.1051 22.9931 69.9419 22.9931C69.5371 22.9931 69.1806 22.8594 68.8815 22.5959C68.4666 22.2296 68.2472 21.6578 68.2289 20.8971C68.2187 20.5077 68.2187 20.203 68.23 19.9903C68.2428 19.7771 68.2755 19.4648 68.3288 19.0603L68.5732 17.1777C68.5081 17.1506 68.4023 17.1167 68.262 17.1167C67.8573 17.1167 67.0364 17.4096 66.0983 19.3575L65.7096 22.3214C65.6982 22.3894 65.4388 23.9493 62.8659 24.5703C62.84 24.5758 62.8184 24.5784 62.7978 24.5784ZM57.7404 15.5403C57.6629 15.5403 57.5769 15.5521 57.4851 15.5741C57.1738 15.649 56.8832 15.8898 56.6208 16.2881C56.3423 16.7089 56.0961 17.2468 55.8881 17.8862C55.6841 18.5197 55.5265 19.2514 55.4199 20.0578C55.3134 20.8681 55.27 21.6883 55.2906 22.4941C55.2994 22.8704 55.327 23.1996 55.3744 23.5002C55.4199 23.7957 55.4876 24.0383 55.5772 24.2186C55.6647 24.4061 55.775 24.5328 55.9146 24.6089C55.9924 24.6518 56.0817 24.6721 56.1857 24.6721C56.2577 24.6721 56.3378 24.6622 56.4231 24.6408C56.6396 24.5894 56.8537 24.4417 57.0603 24.201C57.2719 23.9507 57.4711 23.6561 57.6523 23.3246L58.511 16.9095C58.5065 16.7783 58.4871 16.595 58.4497 16.3722C58.4147 16.1702 58.3596 16.0045 58.2861 15.8817C58.2002 15.7321 58.0973 15.6344 57.9709 15.5822C57.9036 15.555 57.8264 15.5403 57.7404 15.5403M54.5325 27.0712C53.877 27.0712 53.3446 26.8 52.9528 26.2628C52.4494 25.5734 52.1778 24.5254 52.145 23.1467C52.1185 22.0958 52.2256 21.064 52.4652 20.0799C52.7049 19.097 53.0396 18.1901 53.461 17.3849C53.8906 16.5832 54.4065 15.8975 54.9959 15.3456C55.5915 14.7896 56.2349 14.4232 56.9104 14.259C57.2116 14.1862 57.4968 14.1499 57.7569 14.1499C57.9238 14.1499 58.0845 14.1642 58.235 14.1947C58.5824 14.2645 58.8803 14.4012 59.1217 14.5993L61.4551 13.337C61.4779 13.3271 61.5231 13.3091 61.5771 13.3091C61.6451 13.3091 61.7035 13.3356 61.7439 13.3852C61.8211 13.4796 61.7954 13.6089 61.7861 13.6519C61.7506 13.828 61.1192 18.505 60.7908 20.953C60.7536 21.1989 60.7165 21.5057 60.6775 21.8672C60.639 22.2369 60.6225 22.4993 60.6262 22.6705C60.6408 23.1835 60.7459 23.3547 60.8088 23.4121C60.8675 23.466 60.9594 23.4936 61.081 23.4936C61.1707 23.4936 61.2758 23.4789 61.3952 23.4495C61.5268 23.4183 61.691 23.3386 61.8847 23.2136C61.9629 23.1633 62.0305 23.1163 62.0916 23.0751C62.1297 23.0475 62.1735 23.0333 62.218 23.0333C62.2834 23.0333 62.3414 23.0651 62.3756 23.1195C62.4131 23.1805 62.4141 23.2585 62.3781 23.3324C62.2602 23.5837 62.0974 23.8919 61.8954 24.2462C61.4044 25.112 60.6659 25.4992 60.1322 25.6715L60.0904 25.6852C60.0459 25.6991 60.0022 25.7131 59.9562 25.7241C59.7457 25.7745 59.5466 25.8002 59.365 25.8002C59.038 25.8002 58.7525 25.7175 58.5169 25.5561C58.2155 25.3478 57.9863 25.0539 57.832 24.6797C57.6945 24.8848 57.5623 25.0781 57.4348 25.2578C57.2668 25.4945 57.0526 25.7432 56.7986 25.9975C56.5763 26.2216 56.336 26.4245 56.0843 26.5986C55.8293 26.7765 55.5394 26.9062 55.2222 26.983C54.9801 27.0422 54.7478 27.0712 54.5325 27.0712M24.2026 24.1407C24.1254 24.1407 24.0392 24.1529 23.9474 24.1746C23.6363 24.2498 23.3455 24.4905 23.0809 24.8885C22.8027 25.314 22.5571 25.8506 22.3506 26.487C22.1466 27.119 21.9897 27.8488 21.8822 28.6579C21.7757 29.4692 21.7326 30.2887 21.7526 31.095C21.7621 31.4573 21.7892 31.796 21.8354 32.101C21.8822 32.395 21.9511 32.6376 22.0393 32.8198C22.1274 33.0065 22.2376 33.1336 22.3769 33.2108C22.454 33.2519 22.5457 33.2732 22.6487 33.2732C22.7211 33.2732 22.801 33.2629 22.8854 33.2416C23.1031 33.1894 23.3168 33.041 23.5215 32.8014C23.7346 32.5515 23.9337 32.2568 24.1136 31.9268L24.9737 25.5103C24.9682 25.3736 24.9479 25.1854 24.9114 24.9723C24.8765 24.7687 24.8219 24.6041 24.7486 24.4843C24.6626 24.3325 24.5599 24.2352 24.4329 24.183C24.366 24.155 24.2893 24.1407 24.2026 24.1407M20.9948 35.672C20.3384 35.672 19.8061 35.4008 19.4151 34.8636C18.9128 34.1742 18.6405 33.1248 18.6061 31.7461C18.5808 30.6943 18.688 29.6629 18.9277 28.6806C18.9679 28.5153 19.0136 28.3566 19.0596 28.1971L19.1286 27.9443C19.3433 27.2403 19.6106 26.5825 19.9236 25.9857C20.3521 25.1836 20.868 24.4982 21.4582 23.9463C22.052 23.39 22.6962 23.0237 23.3732 22.8594C23.6767 22.7867 23.9622 22.7492 24.2211 22.7492C24.388 22.7492 24.5489 22.765 24.6973 22.7947C25.0446 22.8645 25.3427 23.0009 25.5842 23.199L27.9174 21.9371C27.9404 21.9268 27.9843 21.9085 28.0384 21.9085C28.1061 21.9085 28.1653 21.9356 28.2057 21.9856C28.2827 22.0793 28.2569 22.2097 28.2478 22.2524C28.2128 22.4287 27.5816 27.1057 27.253 29.5523C27.2163 29.797 27.1793 30.0947 27.1389 30.4677C27.1014 30.8274 27.084 31.0971 27.0884 31.2706C27.1014 31.7821 27.2078 31.9555 27.2703 32.0128C27.3289 32.0658 27.4196 32.0937 27.5419 32.0937C27.6321 32.0937 27.7386 32.079 27.8579 32.0495C27.9891 32.0187 28.1533 31.9394 28.3459 31.8144C28.423 31.7637 28.4917 31.7181 28.5514 31.677C28.5919 31.6483 28.6364 31.6337 28.6801 31.6337C28.7443 31.6337 28.803 31.6644 28.8372 31.7189C28.8746 31.7784 28.8774 31.8556 28.8428 31.9298C28.7214 32.1862 28.5582 32.4935 28.358 32.847C27.8404 33.7582 27.0307 34.1324 26.5947 34.2727L26.5302 34.2919C26.4937 34.3036 26.456 34.3154 26.4165 34.3249C26.2074 34.3749 26.0089 34.3998 25.8284 34.3998C25.5004 34.3998 25.2151 34.3183 24.979 34.1559C24.6771 33.9471 24.4478 33.6539 24.2946 33.279C24.1561 33.4856 24.0238 33.6789 23.8963 33.8582C23.7318 34.0919 23.5178 34.3403 23.2608 34.5976C23.0398 34.8217 22.7994 35.0238 22.547 35.1994C22.2852 35.3802 21.9959 35.5088 21.6847 35.5838C21.4426 35.6426 21.2105 35.672 20.9948 35.672M33.2384 23.3368L32.4107 29.8242C32.4232 30.2931 32.5314 30.6797 32.7324 30.9494C32.8711 31.1331 33.0455 31.2235 33.2648 31.2235C33.3391 31.2235 33.4208 31.2132 33.5055 31.1919C33.7955 31.1214 34.0808 30.881 34.3535 30.4761C34.6399 30.0484 34.8841 29.4939 35.0786 28.8298C35.286 28.127 35.4411 27.3895 35.5396 26.6365C35.636 25.8884 35.6736 25.0561 35.6512 24.1609C35.6432 23.8057 35.6166 23.4679 35.5708 23.1578C35.5282 22.8667 35.4595 22.6224 35.366 22.4324C35.2789 22.2479 35.1657 22.1167 35.0289 22.0415C34.9532 22.0002 34.8611 21.9782 34.7584 21.9782C34.6869 21.9782 34.6077 21.9892 34.5232 22.0091C34.2759 22.069 34.0268 22.2472 33.7854 22.5372C33.5403 22.8307 33.356 23.0998 33.2384 23.3368M27.7476 38.6337C27.6054 38.6337 27.5446 38.5698 27.5196 38.5155C27.4814 38.4345 27.5037 38.3449 27.5841 38.2478L27.5933 38.2368L27.6043 38.2273C28.0648 37.8525 28.6461 37.1205 28.8041 35.7668C28.8087 35.7301 30.0929 25.7267 30.0929 25.7267L30.1029 25.644L30.1955 24.8518C30.2359 24.5041 30.2534 24.2205 30.2487 24.0092C30.2366 23.5487 30.1533 23.351 30.0844 23.2658C30.0358 23.2052 29.9514 23.175 29.8266 23.175C29.744 23.175 29.6451 23.1886 29.5339 23.2162C29.3905 23.2511 29.232 23.3258 29.0646 23.4367C28.9435 23.515 28.8382 23.5884 28.7462 23.6572L28.7067 23.6862L28.6332 23.6954C28.5634 23.6954 28.501 23.6561 28.4699 23.5911C28.4345 23.5194 28.4442 23.4286 28.4939 23.3558C28.749 22.8362 29.4374 21.6123 30.4874 21.1155C30.6555 21.039 30.8161 20.9813 30.9675 20.9438C31.2006 20.8876 31.409 20.8604 31.5968 20.8604C31.6679 20.8604 31.7358 20.8648 31.8011 20.8722C32.0524 20.9005 32.2792 20.9912 32.4749 21.1419C32.6368 21.2624 32.7758 21.4263 32.884 21.6292C32.9483 21.7486 33.0069 21.8731 33.0593 21.9995C33.4955 21.3477 33.9323 20.8281 34.3572 20.4518C34.8253 20.0376 35.2888 19.7723 35.736 19.6632C35.9762 19.6056 36.2058 19.5762 36.4189 19.5762C37.075 19.5762 37.6057 19.8499 37.9957 20.39C38.4933 21.0805 38.764 22.1296 38.7981 23.5094C38.8226 24.538 38.7193 25.5636 38.4887 26.5565C38.4187 26.8596 38.3389 27.1535 38.251 27.4394C38.4622 27.1741 38.7127 27.0065 38.9982 26.9368C39.0889 26.9147 39.1798 26.9037 39.267 26.9037C39.4644 26.9037 39.6515 26.9606 39.8213 27.0742C39.973 27.1741 40.1132 27.2854 40.24 27.4077C40.666 26.3657 41.0054 25.1428 41.2507 23.7707C41.5121 22.3092 41.6591 20.9199 41.6865 19.6419C41.6821 19.6128 41.6451 19.3868 41.3651 19.3868C41.3183 19.3868 41.2665 19.3935 41.2103 19.4053C41.1322 19.4218 41.0622 19.4303 41.0026 19.4303C40.7541 19.4303 40.696 19.2877 40.6833 19.2259C40.6392 19.0198 40.8633 18.7997 41.1081 18.6895L41.55 18.5546C42.2364 18.361 43.6186 17.9392 43.6324 17.9362C43.6518 17.9314 43.7279 17.9148 43.8407 17.9148C44.1108 17.9148 44.7569 18.0148 44.9312 18.9456C45.0826 19.7195 45.2167 20.5161 45.3289 21.3138C45.4757 22.3648 45.6003 23.4936 45.6986 24.6732L48.389 17.5834C48.5321 17.299 48.8347 16.8206 49.3294 16.6471C49.3947 16.6222 49.4719 16.5968 49.5483 16.5699L51.2629 16.0386C51.2728 16.0357 51.3014 16.0276 51.3369 16.0276C51.404 16.0276 51.4636 16.054 51.505 16.104C51.5539 16.1613 51.5693 16.2415 51.5519 16.3421C51.5289 16.4792 50.9175 21.1679 50.5986 23.6277C50.5671 23.8563 50.5313 24.1581 50.4927 24.5328C50.4559 24.8915 50.4385 25.1714 50.4422 25.3419C50.4552 25.8645 50.5566 26.0354 50.6168 26.0905C50.6709 26.1416 50.7589 26.1673 50.8763 26.1673C50.9662 26.1673 51.074 26.1525 51.1947 26.1224C51.3369 26.0883 51.5034 26.0107 51.6884 25.8909C51.7785 25.8336 51.8574 25.78 51.9246 25.7315C51.9943 25.6808 52.0586 25.6561 52.1165 25.6561C52.177 25.6561 52.23 25.6829 52.2634 25.7307C52.3017 25.7865 52.3046 25.8579 52.2722 25.9423C52.1211 26.3375 51.678 27.3229 50.8297 27.9289L50.7443 27.9869C50.712 28.0086 50.6789 28.0281 50.6459 28.0483C50.3732 28.2052 50.0951 28.3151 49.7998 28.3856C49.6207 28.4293 49.4472 28.451 49.2835 28.451C48.8799 28.451 48.5256 28.3169 48.2293 28.0517C47.8208 27.6849 47.6032 27.1116 47.5839 26.3503C47.5742 25.9387 47.5747 25.6389 47.5859 25.4323C47.5958 25.2236 47.6282 24.9238 47.6842 24.5122C47.8208 23.5745 48.0393 22.0738 48.1767 21.1144L45.6722 27.604C45.4214 28.2089 44.8209 29.2561 43.5993 29.5112L43.5848 29.5141L43.5664 29.5151C43.4443 29.5151 43.3524 29.3763 43.3451 29.2856C43.1833 27.166 43.0654 25.6462 42.9899 24.7265C42.9357 24.0706 42.7494 22.6647 42.6189 21.7915C42.4675 23.178 42.2757 24.3998 42.0453 25.4305C41.7726 26.6482 41.469 27.6699 41.1403 28.4661C40.8172 29.2388 40.4969 29.814 40.16 30.2281C39.8093 30.6584 39.4929 30.9038 39.1925 30.9766C39.0622 31.0074 38.9376 31.0229 38.8216 31.0229C38.5301 31.0229 38.2831 30.923 38.0904 30.7267C37.8315 30.4607 37.6936 30.0455 37.6801 29.4913C37.6746 29.2635 37.6839 29.0474 37.7074 28.8431C37.6427 28.9805 37.5754 29.1157 37.5048 29.2477C37.0652 30.0686 36.5575 30.7502 35.9955 31.2764C35.4275 31.8077 34.7843 32.1643 34.0819 32.3348C33.7404 32.4178 33.4357 32.4589 33.177 32.4589C33.0337 32.4589 32.9005 32.4457 32.7811 32.4214C32.5336 32.3685 32.3067 32.2753 32.1042 32.1429L31.9167 33.6025L31.7713 34.6901C31.7616 34.7195 31.3587 37.6239 27.8731 38.6205C27.8439 38.6264 27.7962 38.6337 27.7476 38.6337M9.11076 37.3072C9.29266 37.3241 9.47145 37.3337 9.64466 37.3337C13.3496 37.3337 14.4299 33.3232 14.7438 30.9332C14.9258 29.5516 15.1687 26.1364 13.5139 24.251C13.0349 23.7038 12.428 23.3275 11.7019 23.1225L11.624 23.2596C11.4949 23.4881 10.9687 24.6603 10.7714 26.2107C10.665 27.0485 10.449 28.5892 10.2212 30.2188C9.96547 32.0474 9.70095 33.9384 9.55765 35.0679C9.42296 36.1364 9.21387 36.9544 9.11076 37.3072M4.30933 37.2065C3.81914 37.2065 3.58604 37.4872 3.5311 37.7489C3.46954 38.0458 3.61084 38.436 4.06794 38.6352C4.2921 38.7337 4.50941 38.7829 4.71507 38.7829C5.54306 38.7829 6.02871 37.9745 6.18923 37.6518C5.89346 37.5298 5.15303 37.2528 4.38581 37.2088C4.35877 37.2065 4.33421 37.2065 4.30933 37.2065ZM4.90223 40.0991C3.55223 40.0991 2.91132 39.3995 2.64881 38.9821C2.30726 38.4397 2.23158 37.79 2.45534 37.3256C2.81236 36.5833 3.5331 36.1916 4.53796 36.1916C5.22656 36.1916 5.92871 36.3775 6.41786 36.5738C6.57384 35.5346 7.32472 30.479 7.58732 27.5864C7.88477 24.3175 10.9577 23.167 11.3065 23.0468L11.3302 23.0384H11.3481C11.0185 22.9734 10.6657 22.941 10.2922 22.941L10.1941 22.9417C6.61132 22.9943 4.91324 25.123 4.17081 26.5785C4.23788 26.5686 4.30479 26.5641 4.37185 26.5641C4.44976 26.5641 4.52727 26.5714 4.60295 26.5844C5.02185 26.6585 5.37887 26.9227 5.60909 27.3295C5.83397 27.7267 5.91021 28.214 5.82385 28.7017C5.76874 29.0122 5.6488 29.3057 5.47608 29.5523C5.35957 29.7882 5.1299 29.9969 4.83979 30.1233C4.63533 30.2329 4.41021 30.2906 4.1819 30.2906C4.1047 30.2906 4.02679 30.2844 3.95056 30.2703C3.58955 30.2064 3.26467 29.9926 3.03629 29.6684C2.37999 28.9644 2.35798 27.7738 2.98836 26.416C4.42767 23.3172 7.83333 21.1522 11.2687 21.1522C13.6875 21.1522 15.7464 22.2612 17.0644 24.2742C18.5238 26.5017 18.8505 31.3874 16.9862 34.8372C16.0337 36.6002 14.1161 38.7014 10.3907 38.7014H10.3873C10.0756 38.7014 9.75255 38.6859 9.42663 38.6573C9.04569 38.6219 8.92361 38.5875 8.72289 38.5293C8.65845 38.511 8.58509 38.4904 8.49107 38.4661C8.3169 38.708 7.7701 39.3554 6.70319 39.7427C6.05606 39.9793 5.45016 40.0991 4.90223 40.0991" fill="#2689D2"/>
<path d="M57.7602 23.2827C57.5706 23.6348 57.3633 23.9427 57.137 24.2087C56.9107 24.4737 56.6732 24.6368 56.4233 24.6967C56.1793 24.7565 55.9743 24.7407 55.8089 24.6504C55.6436 24.5604 55.5102 24.4093 55.4084 24.1962C55.3129 23.9978 55.2409 23.7428 55.1931 23.4341C55.145 23.124 55.1174 22.7822 55.1079 22.4088C55.0872 21.5879 55.131 20.7678 55.2379 19.9502C55.3466 19.1315 55.5047 18.3988 55.7131 17.7517C55.9262 17.0962 56.1757 16.5509 56.4615 16.1183C56.7475 15.6851 57.0649 15.4268 57.4162 15.3415C57.6445 15.2868 57.837 15.2923 57.9931 15.3573C58.1501 15.4228 58.2786 15.5425 58.3786 15.7171C58.4628 15.8578 58.5237 16.0386 58.5608 16.2591C58.5984 16.4792 58.6193 16.6732 58.6237 16.8403L57.7602 23.2827ZM62.1395 23.1088C62.0785 23.1512 62.0091 23.1982 61.9301 23.2489C61.7225 23.3841 61.545 23.4694 61.3958 23.505C61.0563 23.5877 60.8153 23.5635 60.6737 23.4326C60.5316 23.3018 60.4552 23.0196 60.4441 22.586C60.4394 22.403 60.4573 22.1289 60.4959 21.7633C60.5348 21.3969 60.572 21.0912 60.6091 20.845C60.6091 20.845 61.5604 13.7622 61.6067 13.5344C61.6523 13.3062 61.491 13.3789 61.491 13.3789L59.0673 14.6896C58.8317 14.4702 58.5333 14.3247 58.1709 14.2505C57.8087 14.1781 57.3887 14.1991 56.9107 14.3145C56.258 14.4732 55.6418 14.823 55.0623 15.3654C54.4831 15.9074 53.982 16.5737 53.5579 17.3659C53.1401 18.1632 52.8127 19.0499 52.5745 20.0263C52.3368 21.0022 52.2317 22.0113 52.2578 23.0545C52.2909 24.4082 52.5511 25.4194 53.0375 26.0868C53.5249 26.753 54.2296 26.9749 55.1535 26.7508C55.4503 26.6788 55.7208 26.5586 55.9651 26.3892C56.2095 26.2187 56.441 26.0243 56.6596 25.8042C56.9095 25.5537 57.1164 25.3133 57.2788 25.0832C57.4409 24.854 57.6124 24.603 57.7929 24.3314L57.8564 24.3157C57.9957 24.7724 58.2328 25.1152 58.566 25.3453C58.8997 25.5749 59.3399 25.6227 59.8863 25.4919C59.9429 25.4775 59.9973 25.4596 60.0524 25.4427C60.5117 25.2942 61.2504 24.934 61.7328 24.0845C61.9536 23.6964 62.1057 23.4017 62.2109 23.1787C62.2432 23.1115 62.1998 23.0667 62.1395 23.1088M51.9774 25.7623C51.908 25.8123 51.827 25.8675 51.7337 25.9277C51.5339 26.0563 51.3544 26.1397 51.1958 26.1784C50.8561 26.2606 50.6178 26.2382 50.4808 26.11C50.3445 25.9828 50.2708 25.6984 50.2599 25.2567C50.2557 25.0821 50.2726 24.8055 50.311 24.4299C50.3496 24.0525 50.3851 23.7498 50.4165 23.5201C50.4165 23.5201 51.3416 16.4057 51.3717 16.2286C51.4022 16.0504 51.2723 16.0915 51.2723 16.0915L49.5614 16.6218C49.4857 16.6478 49.4111 16.6736 49.3437 16.6974C48.9049 16.8525 48.6286 17.2792 48.493 17.547L45.7961 24.6526C45.792 24.6574 45.7852 24.671 45.7735 24.7018C45.6694 24.9738 45.5646 24.8892 45.5375 24.861C45.4375 23.5987 45.3079 22.3912 45.1467 21.2455C45.0314 20.4206 44.8983 19.6364 44.7509 18.8846C44.5455 17.787 43.641 17.9887 43.641 17.9887C43.641 17.9887 42.2508 18.412 41.5585 18.6079L41.1337 18.7361C40.7583 18.9055 40.5976 19.2877 41.1442 19.1719C41.7575 19.0407 41.7994 19.5559 41.7994 19.5559C41.7724 20.8428 41.6267 22.2262 41.3621 23.7075C41.0975 25.1891 40.7284 26.4814 40.2538 27.5849C40.0998 27.4078 39.9172 27.2483 39.7052 27.1088C39.4939 26.9683 39.2584 26.929 38.9982 26.9923C38.6422 27.0782 38.3487 27.3391 38.1169 27.7742C37.8848 28.2096 37.7772 28.7512 37.7929 29.3986C37.8056 29.9168 37.9287 30.2953 38.1612 30.5342C38.3942 30.7722 38.7149 30.8421 39.1233 30.7437C39.389 30.6797 39.6846 30.4467 40.0107 30.0462C40.3369 29.6453 40.6558 29.0694 40.9684 28.3202C41.2955 27.528 41.595 26.5244 41.8666 25.3096C42.138 24.0948 42.3533 22.6331 42.5137 20.9233C42.5137 20.9233 42.5321 20.7906 42.5937 20.9041C42.6544 21.0177 43.0259 23.6902 43.1027 24.6257C43.1779 25.5462 43.2965 27.0654 43.4584 29.1852C43.461 29.2201 43.5119 29.2818 43.5343 29.2775C44.7076 29.0327 45.2792 27.9935 45.4997 27.4622L48.332 20.1134C48.332 20.1134 48.4325 19.9664 48.4158 20.1387C48.3985 20.3104 47.7961 24.4439 47.7961 24.4439C47.7418 24.84 47.7092 25.142 47.6991 25.3508C47.6883 25.5603 47.6875 25.863 47.6969 26.2584C47.7151 26.9805 47.9135 27.5122 48.2931 27.8531C48.6729 28.1942 49.1523 28.2938 49.7308 28.1537C50.0229 28.0832 50.284 27.9781 50.5174 27.8432C50.5548 27.8208 50.5923 27.7988 50.628 27.7753C50.6549 27.7568 50.6812 27.7393 50.708 27.7202C51.5192 27.1411 51.9458 26.2021 52.0993 25.8013C52.1446 25.6815 52.0557 25.7053 51.9774 25.7623M72.7077 20.2673C72.6306 20.3254 72.5372 20.3893 72.4259 20.4603C72.2253 20.5899 72.0459 20.6734 71.8857 20.7124C71.5454 20.7939 71.3058 20.773 71.1689 20.6436C71.0321 20.5168 70.9583 20.2324 70.9468 19.7911C70.9431 19.6162 70.96 19.3406 70.999 18.9635C71.038 18.5866 71.0732 18.283 71.1052 18.0537C71.1052 18.0537 72.0477 10.8706 72.0658 10.7612C72.0834 10.6509 71.997 10.6671 71.997 10.6671C69.477 11.1888 69.2745 12.6613 69.2745 12.6613L69.2709 12.6547L68.8582 15.9791L68.8421 16.0639C68.7855 16.021 68.7237 15.9765 68.655 15.9295C67.7602 15.3206 66.6579 16.2833 66.2521 16.6935L66.3278 16.1143C66.3822 15.7417 66.4168 15.4147 66.4315 15.1354C66.4454 14.8561 66.4491 14.5835 66.4425 14.3167C66.4257 13.6387 66.2477 13.1107 65.9075 12.7336C65.5669 12.356 65.0708 12.2467 64.4186 12.4044C64.1713 12.4639 63.9133 12.5742 63.6462 12.7293C62.837 13.2482 62.2623 14.2979 62.0433 14.7458C61.9797 14.8767 62.055 14.8723 62.1168 14.8274C62.2016 14.765 62.2965 14.6985 62.399 14.629C62.5742 14.5096 62.7477 14.4291 62.9174 14.3887C63.2467 14.3082 63.4757 14.3354 63.6042 14.4688C63.7332 14.6033 63.8034 14.8866 63.8137 15.3206C63.8195 15.5491 63.8013 15.8413 63.76 16.1958C63.7182 16.5512 63.6829 16.8389 63.6568 17.0601L62.7138 24.2561C62.7138 24.2561 62.679 24.3634 62.7965 24.338C65.3019 23.7328 65.5272 22.213 65.5272 22.213L65.5283 22.2142L65.92 19.2267C67.4247 16.0841 68.6983 17.0072 68.6983 17.0072L68.4408 18.9915C68.3867 19.4016 68.3548 19.708 68.343 19.909C68.3327 20.1112 68.332 20.4084 68.3415 20.8045C68.3599 21.5263 68.5609 22.0572 68.9453 22.3964C69.3296 22.7356 69.8107 22.8352 70.3876 22.6959C70.7492 22.608 71.0689 22.467 71.3503 22.2781C71.9154 21.8438 72.532 20.7575 72.7642 20.3246C72.8257 20.2115 72.7694 20.2218 72.7077 20.2673M35.6512 26.5671C35.5525 27.327 35.3982 28.0648 35.1867 28.7828C34.9851 29.4679 34.7366 30.03 34.4415 30.4698C34.1461 30.909 33.8341 31.1684 33.506 31.247C33.1087 31.3433 32.7995 31.2434 32.5788 30.9487C32.3584 30.6533 32.2421 30.2423 32.2288 29.717L33.0599 23.2056C33.1812 22.9542 33.3738 22.6702 33.6371 22.3538C33.901 22.0367 34.1729 21.8441 34.4536 21.7769C34.6971 21.718 34.9014 21.7335 35.066 21.8235C35.2304 21.9143 35.3636 22.0657 35.4647 22.2789C35.5656 22.4842 35.6382 22.7411 35.6833 23.0483C35.7284 23.3555 35.7557 23.6954 35.765 24.0683C35.7873 24.9753 35.7499 25.8079 35.6512 26.5671M38.6151 23.425C38.5815 22.069 38.3234 21.0574 37.8403 20.3886C37.3583 19.7194 36.6565 19.4967 35.7357 19.7194C35.3122 19.822 34.874 20.0733 34.4211 20.4746C33.9675 20.8751 33.505 21.4395 33.0336 22.1663L32.9697 22.1818C32.9005 21.9841 32.8174 21.7938 32.7189 21.6104C32.6202 21.4267 32.4977 21.2801 32.3503 21.1706C32.1757 21.0368 31.9757 20.9567 31.7501 20.9306C31.5256 20.9045 31.269 20.9273 30.9786 20.9971C30.9751 20.9982 30.9721 20.9994 30.9685 20.9997C30.8213 21.036 30.6698 21.0912 30.5159 21.1606C29.4962 21.6424 28.8219 22.8597 28.5846 23.3474C28.5346 23.4121 28.5753 23.4856 28.6225 23.4499C28.7174 23.3797 28.8254 23.3041 28.9478 23.2239C29.1324 23.1026 29.3044 23.0229 29.4641 22.9844C29.8099 22.9001 30.0436 22.9336 30.1654 23.085C30.2861 23.2356 30.3521 23.5131 30.3619 23.917C30.368 24.1385 30.3497 24.4262 30.3076 24.7812C30.2655 25.1362 30.2316 25.4287 30.2051 25.6572C30.2051 25.6572 28.919 35.6749 28.9167 35.6955C28.7501 37.1249 28.115 37.8856 27.6635 38.2545C27.5129 38.4345 27.7598 38.397 27.7985 38.3904C31.2292 37.4087 31.5834 34.5828 31.5834 34.5828H31.59L31.7296 33.4937L31.7347 33.4944L31.9547 31.7836C32.1895 31.9871 32.4635 32.1216 32.7773 32.1878C33.0909 32.2531 33.5027 32.2253 34.0122 32.1017C34.6914 31.9379 35.3069 31.5969 35.8597 31.0802C36.4124 30.5632 36.9059 29.8999 37.3393 29.0897C37.7569 28.3066 38.0812 27.4218 38.3096 26.4355C38.5387 25.4493 38.6406 24.4457 38.6151 23.425M3.97398 38.6822C2.96601 38.242 3.19009 36.9045 4.35939 36.9728C5.38722 37.0324 6.35174 37.4887 6.35174 37.4887C6.35174 37.4887 5.60875 39.3958 3.97398 38.6822ZM3.08738 26.3896C2.39847 27.873 2.5822 28.913 3.12311 29.4946C3.32207 29.7772 3.605 29.976 3.94161 30.0356C4.22047 30.0852 4.49735 30.0311 4.74631 29.8992C4.99073 29.7927 5.20142 29.6147 5.32048 29.3796C5.47574 29.1551 5.58986 28.8864 5.64312 28.5874C5.80907 27.6496 5.31665 26.7788 4.54273 26.6416C4.30947 26.6001 4.07685 26.6317 3.86106 26.72C4.53132 25.2486 6.24025 22.7627 10.1576 22.7051C15.2099 22.6316 15.2074 28.1883 14.856 30.8641C14.3958 34.3654 12.8021 37.8422 8.881 37.3461C8.89344 37.3167 9.19815 36.3709 9.37669 34.9613C9.64823 32.8168 10.3653 27.8738 10.59 26.1037C10.7984 24.4634 11.3566 23.2801 11.4611 23.0971H11.4188H11.3206C10.6872 23.3161 7.97542 24.4813 7.69998 27.5118C7.40381 30.7722 6.50094 36.6965 6.50094 36.6965C5.53028 36.2533 3.30022 35.7513 2.55365 37.3005C2.05253 38.3427 3.21585 40.7598 6.61784 39.5149C7.88387 39.0563 8.39193 38.2089 8.39193 38.2089C8.87055 38.325 8.87454 38.3728 9.405 38.4214C18.599 39.2576 19.3314 27.97 16.905 24.2656C13.3915 18.9011 5.48196 21.2371 3.08738 26.3896M24.2225 31.8835C24.0327 32.2356 23.8253 32.5442 23.5994 32.8088C23.3736 33.074 23.1357 33.2371 22.8859 33.2975C22.6413 33.357 22.4364 33.3408 22.2713 33.2512C22.1059 33.1608 21.9721 33.0101 21.8713 32.7962C21.775 32.5978 21.7032 32.3435 21.6552 32.0341C21.6076 31.724 21.5792 31.3822 21.5702 31.0104C21.549 30.1888 21.593 29.3686 21.7007 28.5503C21.8088 27.7316 21.967 26.9989 22.1749 26.3517C22.3884 25.6954 22.6383 25.1516 22.9237 24.7183C23.2095 24.2859 23.5276 24.0272 23.8785 23.9427C24.1065 23.8872 24.2993 23.8923 24.4556 23.9577C24.6121 24.0228 24.7406 24.143 24.8412 24.3182C24.9253 24.4578 24.9852 24.6387 25.0226 24.8588C25.0604 25.0796 25.0814 25.2729 25.0852 25.4408L24.2225 31.8835ZM28.1949 32.6852C28.4154 32.2965 28.5673 32.0025 28.6735 31.7791C28.7052 31.7123 28.6623 31.6675 28.6018 31.7093C28.5408 31.7519 28.4714 31.799 28.3926 31.8497C28.1844 31.9841 28.0069 32.0702 27.8583 32.1054C27.5182 32.1878 27.2775 32.1635 27.1357 32.0334C26.994 31.9026 26.9174 31.6204 26.906 31.186C26.9018 31.0037 26.9192 30.7297 26.9578 30.3637C26.9969 29.9977 27.0346 29.6919 27.0716 29.445C27.0716 29.445 28.0227 22.3633 28.0685 22.1348C28.1144 21.9076 27.9529 21.9789 27.9529 21.9789L25.5295 23.2901C25.2941 23.071 24.9954 22.9248 24.6331 22.8513C24.2711 22.7781 23.8505 22.8002 23.3729 22.9153C22.7197 23.0733 22.104 23.4234 21.5242 23.9655C20.9453 24.5071 20.4438 25.174 20.0202 25.9655C19.7088 26.559 19.4477 27.2028 19.2369 27.8954L19.1718 28.1324C19.125 28.2956 19.078 28.4577 19.0367 28.6267C18.7993 29.6026 18.6935 30.6117 18.7199 31.6549C18.7532 33.0094 19.0131 34.0199 19.4994 34.6879C19.9863 35.3537 20.6919 35.575 21.6157 35.3516C21.9128 35.2795 22.1832 35.159 22.4276 34.9893C22.6713 34.8202 22.9032 34.6261 23.1219 34.4043C23.3718 34.1537 23.5781 33.914 23.7409 33.684C23.9029 33.4541 24.0744 33.2034 24.2552 32.9315L24.3187 32.9161C24.458 33.3731 24.6946 33.7148 25.0283 33.9457C25.3618 34.1749 25.8017 34.2242 26.348 34.0919C26.4056 34.078 26.4594 34.0596 26.5141 34.0434C26.974 33.8942 27.7126 33.5341 28.1949 32.6852" fill="white"/>
<g opacity="0.5" filter="url(#filter1_f_472_2197)">
<path d="M69.3462 32.4087C71.7823 32.2561 73.1371 32.3018 74.0462 33.1289C74.9127 33.917 74.3208 35.4519 73.2048 34.6112C72.6974 34.2289 70.8739 33.2839 68.9534 33.4638C67.0329 33.6438 64.1211 34.3155 63.5902 34.4726C62.4849 34.7996 62.2375 34.2911 63.2798 33.9068C63.7614 33.7293 66.4009 32.5933 69.3462 32.4087Z" fill="url(#paint1_linear_472_2197)"/>
</g>
<g opacity="0.5" filter="url(#filter2_f_472_2197)">
<path d="M21.5213 40.2783C23.9621 40.2636 25.1608 42.985 26.273 43.5085C27.7689 44.2124 27.549 44.8568 25.7671 44.0869C25.1838 43.8348 23.4957 42.0219 21.5681 42.093C20.5419 42.1308 19.8934 42.412 18.3975 42.9393C16.1465 43.7329 13.8328 46.16 11.4405 47.3562C10.4096 47.8716 10.4182 47.1535 12.1582 45.9606C14.16 44.5882 15.491 43.4254 16.9429 42.3721C17.8754 41.6955 20.0029 40.2875 21.5213 40.2783Z" fill="url(#paint2_linear_472_2197)"/>
</g>
<g opacity="0.5" filter="url(#filter3_f_472_2197)">
<path d="M44.2573 41.0703C43.3664 41.5653 41.7856 41.8321 40.9245 40.9549C40.1041 40.1191 40.5477 39.0954 41.6144 39.9978C42.0995 40.4082 42.8848 40.3939 43.7428 39.8989C45.4135 38.9349 46.7126 38.0675 47.62 37.2921C48.4962 36.5433 49.2401 37.1931 47.7221 38.48C47.3306 38.812 46.8371 39.6372 44.2573 41.0703" fill="url(#paint3_linear_472_2197)"/>
</g>
<g opacity="0.4" filter="url(#filter4_f_472_2197)">
<path d="M69.7293 35.1675C68.1453 35.1675 67.0305 35.3606 66.0079 35.6987C64.3802 36.2368 64.7556 36.8573 66.2981 36.4945C66.8602 36.3623 67.8686 36.1101 69.0274 36.12C70.3909 36.1317 72.2134 36.4206 72.7123 36.5106C73.7508 36.6979 73.9777 35.886 72.9944 35.6557C72.5401 35.5493 71.5356 35.1675 69.7293 35.1675" fill="url(#paint4_linear_472_2197)"/>
</g>
<g opacity="0.4" filter="url(#filter5_f_472_2197)">
<path d="M53.6429 41.9255C52.7519 42.4205 50.442 42.2637 49.5809 41.3865C48.7605 40.5507 49.8342 39.4281 50.9009 40.3306C51.3859 40.741 52.768 40.9133 53.626 40.4184C55.2967 39.4545 60.2567 36.8352 61.3392 36.3323C64.2281 34.9904 64.375 36.0463 62.4171 36.7723C61.9359 36.9507 56.2225 40.4924 53.6429 41.9255" fill="url(#paint5_linear_472_2197)"/>
</g>
<g opacity="0.5" filter="url(#filter6_f_472_2197)">
<path d="M54.3781 33.669C53.7016 33.6693 53.3087 34.1756 53.3932 34.7385C53.4776 35.3014 54.2375 35.2451 54.6878 34.9918C55.1381 34.7385 56.2271 33.6683 54.3781 33.669Z" fill="url(#paint6_linear_472_2197)"/>
</g>
<g opacity="0.5" filter="url(#filter7_f_472_2197)">
<path d="M57.291 31.1653C57.1438 31.7459 57.149 32.095 56.3861 32.095C55.6231 32.095 55.7827 32.727 55.978 32.913C56.1732 33.099 56.8474 32.9786 57.0958 32.5553C57.3442 32.1321 57.7346 31.0166 58.3378 30.8493C58.9411 30.682 59.4024 30.8121 59.5799 30.1242C59.7572 29.4363 59.0121 29.083 58.4088 29.1947C57.8056 29.3061 57.5926 29.9755 57.291 31.1653" fill="url(#paint7_linear_472_2197)"/>
</g>
<g opacity="0.7" filter="url(#filter8_f_472_2197)">
<path d="M39.2264 36.5195C39.0104 37.0341 38.6733 38.2049 38.9654 38.3447C39.3809 38.5434 39.2632 37.4567 41.0422 37.2846C41.6469 37.2261 42.0309 37.0572 42.2037 36.4182C42.3764 35.7791 41.2792 35.1162 40.692 35.2199C40.1048 35.3235 39.6504 35.5092 39.2264 36.5195" fill="url(#paint8_linear_472_2197)"/>
</g>
<g opacity="0.4" filter="url(#filter9_f_472_2197)">
<path d="M1.54711 48.712C1.54711 48.712 5.00046 49.7513 6.97526 49.908C9.05413 50.073 11.6362 50.1667 14.837 48.0548C18.0378 45.943 19.4857 45.1779 20.9745 45.1895C22.4918 45.2013 23.7652 46.2682 25.0031 47.4389C26.1578 48.5309 28.1874 49.4848 30.4972 48.9568C32.8071 48.4288 33.2663 47.0301 34.9822 45.2821C36.6981 43.5341 37.5505 42.483 39.6954 42.9779C41.8403 43.4729 43.2013 42.7749 44.4553 42.412C45.7092 42.049 46.9218 41.7932 48.0438 42.6512C49.1658 43.5091 49.533 45.0002 51.5086 44.7385C53.4841 44.4768 51.8056 44.095 51.4261 44.095C51.0466 44.095 50.2382 43.6496 50.0237 43.0226C49.8092 42.3958 49.9549 40.8431 47.6451 41.2557C45.3352 41.6682 44.845 42.126 42.6212 42.5714C40.5664 42.983 39.2169 42.6377 38.7054 42.2912C38.1939 41.9447 38.6917 40.5585 37.8365 40.6576C36.9813 40.7565 34.3669 44.2976 33.1316 45.7014C31.3772 47.695 30.0242 48.386 28.0279 47.8745C26.0315 47.363 23.3999 43.1179 20.9086 43.3581C18.4173 43.5984 14.0863 47.6063 12.2384 48.2333C10.3905 48.8603 9.33116 49.1765 9.21083 48.6653C9.07885 48.1044 8.94687 47.5433 8.48491 47.8403C8.02295 48.1374 7.37399 49.0308 5.53986 49.0308C3.80612 49.0308 1.9259 48.3365 1.7121 48.3131C0.808755 48.214 1.11091 48.5305 1.54711 48.712Z" fill="url(#paint9_linear_472_2197)"/>
</g>
<g opacity="0.8" filter="url(#filter10_f_472_2197)">
<path d="M0.179688 25.8971C0.179688 25.8971 8.476 17.2184 17.0116 16.3426C24.9948 15.5235 28.391 15.4162 35.0401 15.2279C42.0079 15.0306 49.5268 11.4417 54.24 8.739C57.1352 7.07883 56.9087 6.81011 53.8166 8.15036C48.5938 10.4141 40.9138 13.1669 34.8008 13.317C27.0648 13.5068 23.5781 12.8098 18.4475 13.317C6.3661 14.5113 0.179688 21.337 0.179688 21.337V25.8971Z" fill="url(#paint10_linear_472_2197)"/>
</g>
<g opacity="0.7" filter="url(#filter11_f_472_2197)">
<path d="M1.73588 20.0917C1.68296 20.1395 1.64197 20.1774 1.61298 20.2045C1.60793 20.2332 1.60232 20.2691 1.59768 20.3086C1.5852 20.4151 1.58331 20.5206 1.59989 20.5893L1.60018 20.5905C1.61981 20.5843 1.64878 20.5726 1.68852 20.5507C1.76247 20.5099 1.86041 20.4411 1.98645 20.3319C3.09069 19.3749 6.4904 17.388 12.7185 15.2321C16.3699 13.9681 20.6967 13.5442 29.1571 14.0592C34.929 14.4106 40.5184 13.963 45.024 12.5977C46.8766 12.0363 48.6912 11.1445 50.3312 10.3386C51.0038 10.008 51.6471 9.69183 52.2517 9.41882C57.1958 7.18598 62.0764 4.92551 67.1051 3.52869C68.0953 3.25362 69.5588 2.90762 70.7235 2.66147C71.0173 2.59937 72.4151 2.39028 72.4055 2.38796C72.1508 2.32685 71.6882 2.35929 70.9631 2.42169C70.2431 2.48365 69.28 2.63258 68.0325 2.91254C64.5467 3.69475 58.3078 5.59498 52.2929 8.43767C51.7597 8.68967 51.2619 8.92917 50.7901 9.15624L50.79 9.15627C48.5394 10.2393 46.8766 10.86 44.752 11.3843C39.0837 12.7829 33.9869 12.7619 30.8827 12.7491L30.8823 12.7491C30.6059 12.748 30.3452 12.7469 30.1013 12.7469C29.1723 12.7469 28.1563 12.6862 27.0552 12.6204C23.2771 12.3946 18.4972 12.109 12.7926 14.0105C9.10764 15.2389 6.29565 16.8036 4.40646 18.0597C3.46191 18.6878 2.74828 19.2386 2.27181 19.6313C2.03358 19.8277 1.85468 19.9845 1.73588 20.0917Z" fill="url(#paint11_linear_472_2197)"/>
</g>
</g>
<defs>
<filter id="filter0_f_472_2197" x="0.101133" y="1.36593" width="75.3055" height="21.7428" filterUnits="userSpaceOnUse" color-interpolation-filters="sRGB">
<feFlood flood-opacity="0" result="BackgroundImageFix"/>
<feBlend mode="normal" in="SourceGraphic" in2="BackgroundImageFix" result="shape"/>
<feGaussianBlur stdDeviation="0.299043" result="effect1_foregroundBlur_472_2197"/>
</filter>
<filter id="filter1_f_472_2197" x="62.0181" y="31.7418" width="13.0409" height="3.71189" filterUnits="userSpaceOnUse" color-interpolation-filters="sRGB">
<feFlood flood-opacity="0" result="BackgroundImageFix"/>
<feBlend mode="normal" in="SourceGraphic" in2="BackgroundImageFix" result="shape"/>
<feGaussianBlur stdDeviation="0.299043" result="effect1_foregroundBlur_472_2197"/>
</filter>
<filter id="filter2_f_472_2197" x="10.1441" y="39.6802" width="17.7186" height="8.4433" filterUnits="userSpaceOnUse" color-interpolation-filters="sRGB">
<feFlood flood-opacity="0" result="BackgroundImageFix"/>
<feBlend mode="normal" in="SourceGraphic" in2="BackgroundImageFix" result="shape"/>
<feGaussianBlur stdDeviation="0.299043" result="effect1_foregroundBlur_472_2197"/>
</filter>
<filter id="filter3_f_472_2197" x="39.9019" y="36.3768" width="9.29188" height="5.74994" filterUnits="userSpaceOnUse" color-interpolation-filters="sRGB">
<feFlood flood-opacity="0" result="BackgroundImageFix"/>
<feBlend mode="normal" in="SourceGraphic" in2="BackgroundImageFix" result="shape"/>
<feGaussianBlur stdDeviation="0.299043" result="effect1_foregroundBlur_472_2197"/>
</filter>
<filter id="filter4_f_472_2197" x="64.3531" y="34.5694" width="9.86805" height="2.63158" filterUnits="userSpaceOnUse" color-interpolation-filters="sRGB">
<feFlood flood-opacity="0" result="BackgroundImageFix"/>
<feBlend mode="normal" in="SourceGraphic" in2="BackgroundImageFix" result="shape"/>
<feGaussianBlur stdDeviation="0.299043" result="effect1_foregroundBlur_472_2197"/>
</filter>
<filter id="filter5_f_472_2197" x="48.6929" y="35.0895" width="15.6298" height="7.71239" filterUnits="userSpaceOnUse" color-interpolation-filters="sRGB">
<feFlood flood-opacity="0" result="BackgroundImageFix"/>
<feBlend mode="normal" in="SourceGraphic" in2="BackgroundImageFix" result="shape"/>
<feGaussianBlur stdDeviation="0.299043" result="effect1_foregroundBlur_472_2197"/>
</filter>
<filter id="filter6_f_472_2197" x="52.7837" y="33.0709" width="3.23231" height="2.70293" filterUnits="userSpaceOnUse" color-interpolation-filters="sRGB">
<feFlood flood-opacity="0" result="BackgroundImageFix"/>
<feBlend mode="normal" in="SourceGraphic" in2="BackgroundImageFix" result="shape"/>
<feGaussianBlur stdDeviation="0.299043" result="effect1_foregroundBlur_472_2197"/>
</filter>
<filter id="filter7_f_472_2197" x="55.2183" y="28.5762" width="4.98621" height="5.01963" filterUnits="userSpaceOnUse" color-interpolation-filters="sRGB">
<feFlood flood-opacity="0" result="BackgroundImageFix"/>
<feBlend mode="normal" in="SourceGraphic" in2="BackgroundImageFix" result="shape"/>
<feGaussianBlur stdDeviation="0.299043" result="effect1_foregroundBlur_472_2197"/>
</filter>
<filter id="filter8_f_472_2197" x="38.2535" y="34.611" width="4.56629" height="4.35592" filterUnits="userSpaceOnUse" color-interpolation-filters="sRGB">
<feFlood flood-opacity="0" result="BackgroundImageFix"/>
<feBlend mode="normal" in="SourceGraphic" in2="BackgroundImageFix" result="shape"/>
<feGaussianBlur stdDeviation="0.299043" result="effect1_foregroundBlur_472_2197"/>
</filter>
<filter id="filter9_f_472_2197" x="0.52789" y="40.0544" width="52.5233" height="10.5287" filterUnits="userSpaceOnUse" color-interpolation-filters="sRGB">
<feFlood flood-opacity="0" result="BackgroundImageFix"/>
<feBlend mode="normal" in="SourceGraphic" in2="BackgroundImageFix" result="shape"/>
<feGaussianBlur stdDeviation="0.299043" result="effect1_foregroundBlur_472_2197"/>
</filter>
<filter id="filter10_f_472_2197" x="-1.01648" y="6.10046" width="58.4929" height="20.9928" filterUnits="userSpaceOnUse" color-interpolation-filters="sRGB">
<feFlood flood-opacity="0" result="BackgroundImageFix"/>
<feBlend mode="normal" in="SourceGraphic" in2="BackgroundImageFix" result="shape"/>
<feGaussianBlur stdDeviation="0.598086" result="effect1_foregroundBlur_472_2197"/>
</filter>
<filter id="filter11_f_472_2197" x="0.989805" y="1.75724" width="72.0136" height="19.4313" filterUnits="userSpaceOnUse" color-interpolation-filters="sRGB">
<feFlood flood-opacity="0" result="BackgroundImageFix"/>
<feBlend mode="normal" in="SourceGraphic" in2="BackgroundImageFix" result="shape"/>
<feGaussianBlur stdDeviation="0.299043" result="effect1_foregroundBlur_472_2197"/>
</filter>
<linearGradient id="paint0_linear_472_2197" x1="37.1908" y1="10.8215" x2="35.6246" y2="24.9609" gradientUnits="userSpaceOnUse">
<stop stop-color="#1C61B6"/>
<stop offset="0.131868" stop-color="#1C61B6"/>
<stop offset="0.71978" stop-color="#3D3A9B"/>
<stop offset="1" stop-color="#2E3192"/>
</linearGradient>
<linearGradient id="paint1_linear_472_2197" x1="62.603" y1="33.9615" x2="74.4203" y2="33.2923" gradientUnits="userSpaceOnUse">
<stop stop-color="#234EA7"/>
<stop offset="0.846952" stop-color="#127BCA"/>
<stop offset="1" stop-color="#127BCA"/>
</linearGradient>
<linearGradient id="paint2_linear_472_2197" x1="10.7422" y1="43.7637" x2="27.2642" y2="43.7637" gradientUnits="userSpaceOnUse">
<stop stop-color="#117FCD"/>
<stop offset="0.170391" stop-color="#176EC0"/>
<stop offset="0.486034" stop-color="#234EA7"/>
<stop offset="0.846952" stop-color="#127BCA"/>
<stop offset="1" stop-color="#127BCA"/>
</linearGradient>
<linearGradient id="paint3_linear_472_2197" x1="48.5956" y1="39.2518" x2="40.5" y2="39.2518" gradientUnits="userSpaceOnUse">
<stop stop-color="#234EA7"/>
<stop offset="0.0893855" stop-color="#234EA7"/>
<stop offset="0.486034" stop-color="#127BCA"/>
<stop offset="1" stop-color="#127BCA"/>
</linearGradient>
<linearGradient id="paint4_linear_472_2197" x1="73.6234" y1="35.8852" x2="64.9511" y2="35.8852" gradientUnits="userSpaceOnUse">
<stop stop-color="#B2E6F9"/>
<stop offset="0.137455" stop-color="#B2E6F9"/>
<stop offset="0.910615" stop-color="#ECF8E7"/>
<stop offset="1" stop-color="#ECF8E7"/>
</linearGradient>
<linearGradient id="paint5_linear_472_2197" x1="63.8876" y1="38.9457" x2="49.4538" y2="38.9457" gradientUnits="userSpaceOnUse">
<stop stop-color="#C7EDF9"/>
<stop offset="0.111732" stop-color="#C7EDF9"/>
<stop offset="0.472067" stop-color="#CAEEF8"/>
<stop offset="0.946927" stop-color="#F6FBE4"/>
<stop offset="1" stop-color="#F6FBE4"/>
</linearGradient>
<linearGradient id="paint6_linear_472_2197" x1="55.4411" y1="34.4224" x2="53.4048" y2="34.4224" gradientUnits="userSpaceOnUse">
<stop stop-color="#C7EDF9"/>
<stop offset="0.111732" stop-color="#C7EDF9"/>
<stop offset="0.472067" stop-color="#CAEEF8"/>
<stop offset="0.946927" stop-color="#F6FBE4"/>
<stop offset="1" stop-color="#F6FBE4"/>
</linearGradient>
<linearGradient id="paint7_linear_472_2197" x1="59.6492" y1="31.086" x2="55.8592" y2="31.086" gradientUnits="userSpaceOnUse">
<stop stop-color="#C7EDF9"/>
<stop offset="0.111732" stop-color="#C7EDF9"/>
<stop offset="0.472067" stop-color="#CAEEF8"/>
<stop offset="0.946927" stop-color="#F6FBE4"/>
<stop offset="1" stop-color="#F6FBE4"/>
</linearGradient>
<linearGradient id="paint8_linear_472_2197" x1="42.2599" y1="36.789" x2="38.8895" y2="36.789" gradientUnits="userSpaceOnUse">
<stop stop-color="#C7EDF9"/>
<stop offset="0.111732" stop-color="#C7EDF9"/>
<stop offset="0.472067" stop-color="#CAEEF8"/>
<stop offset="0.946927" stop-color="#F6FBE4"/>
<stop offset="1" stop-color="#F6FBE4"/>
</linearGradient>
<linearGradient id="paint9_linear_472_2197" x1="53.0313" y1="45.3183" x2="1.70462" y2="45.3183" gradientUnits="userSpaceOnUse">
<stop stop-color="#C7EDF9"/>
<stop offset="0.111732" stop-color="#C7EDF9"/>
<stop offset="0.472067" stop-color="#CAEEF8"/>
<stop offset="0.740223" stop-color="white"/>
<stop offset="0.946927" stop-color="#F6FBE4"/>
<stop offset="1" stop-color="#F6FBE4"/>
</linearGradient>
<linearGradient id="paint10_linear_472_2197" x1="-0.452822" y1="16.5969" x2="55.6477" y2="16.5969" gradientUnits="userSpaceOnUse">
<stop stop-color="#00ADEF"/>
<stop offset="0.111732" stop-color="#00ADEF"/>
<stop offset="0.472067" stop-color="#37BFF2"/>
<stop offset="0.946927" stop-color="#F6FBE4"/>
<stop offset="1" stop-color="#F6FBE4"/>
</linearGradient>
<linearGradient id="paint11_linear_472_2197" x1="0.543107" y1="11.4619" x2="71.9925" y2="11.4619" gradientUnits="userSpaceOnUse">
<stop stop-color="#C6740D"/>
<stop offset="0.117318" stop-color="#C6740D"/>
<stop offset="0.472067" stop-color="#E1AB07"/>
<stop offset="0.946927" stop-color="#F9E302"/>
<stop offset="1" stop-color="#F9E302"/>
</linearGradient>
<clipPath id="clip0_472_2197">
<rect width="75" height="50.3589" fill="white"/>
</clipPath>
</defs>
</svg>
