<svg width="66" height="66" viewBox="0 0 66 66" fill="none" xmlns="http://www.w3.org/2000/svg">
<path d="M28.1223 37.8911C27.5716 37.8911 27.131 37.5644 27.0209 37.0199C26.9107 36.4754 27.2411 35.9309 27.7919 35.822C29.2237 35.3864 32.1975 34.0796 32.4178 32.5549C32.528 31.5748 31.0961 30.1591 28.4527 28.8523C27.902 28.5256 27.6817 27.8722 28.0121 27.4366C28.3426 26.8921 29.0034 26.6743 29.444 27.001C31.6468 28.1989 33.1888 29.2879 33.9598 30.4858C34.9511 28.5256 35.5018 26.8921 35.5018 26.7832C35.6119 26.2387 36.1626 25.912 36.7133 26.0209C37.2641 26.1298 37.7046 26.5654 37.7046 27.1099V35.7131H44.3131C44.0929 35.4953 43.8726 35.2775 43.6523 35.1686C42.3306 34.4063 40.4582 34.8419 39.7973 35.0597C39.2466 35.2775 38.5858 34.9508 38.3655 34.4063C38.1452 33.8618 38.4756 33.2084 39.0263 32.9906C39.0381 32.9906 39.0853 32.9781 39.1629 32.9575C39.8104 32.7861 42.5783 32.0531 44.6436 33.3173C45.8551 33.9707 46.6261 35.1686 46.9565 36.6932C47.0667 37.0199 46.9565 37.3466 46.7363 37.5644C46.516 37.7822 46.1856 38 45.8551 38H36.3829C35.7221 38 35.2815 37.5644 35.2815 36.911V32.446C33.8497 34.9508 31.5367 37.6733 28.1223 37.8911Z" fill="url(#paint0_linear_151_643)"/>
<path d="M19.2076 36.6167C19.6843 37.2667 21.1142 39 22.9016 39C23.0207 39 23.1399 39 23.2591 38.8917C24.9619 38.6982 25.7142 36.9492 25.9404 36.4232C25.9675 36.3603 25.987 36.3148 25.9998 36.2917V27.0833C25.9998 26.4333 25.5231 26 24.8082 26C24.0932 26 23.6165 26.4333 23.6165 27.0833V35.75C23.4974 36.1833 23.1399 36.725 22.9016 36.725C22.6633 36.8333 22.0675 36.5083 21.1142 35.3167C20.7567 34.8833 19.9226 34.775 19.4459 35.1C18.9693 35.425 18.8501 36.1833 19.2076 36.6167Z" fill="url(#paint1_linear_151_643)"/>
<path fill-rule="evenodd" clip-rule="evenodd" d="M32.9998 13.5C22.2736 13.5 13.4998 22.2739 13.4998 33C13.4998 43.7262 22.2736 52.5 32.9998 52.5C43.7259 52.5 52.4998 43.7262 52.4998 33C52.4998 22.2739 43.7259 13.5 32.9998 13.5ZM16.8748 33C16.8748 24.1324 24.1321 16.875 32.9998 16.875C41.8674 16.875 49.1248 24.1324 49.1248 33C49.1248 41.8676 41.8674 49.125 32.9998 49.125C24.1321 49.125 16.8748 41.8676 16.8748 33Z" fill="url(#paint2_linear_151_643)"/>
<path fill-rule="evenodd" clip-rule="evenodd" d="M34.074 1.04351C33.467 0.436485 32.5328 0.436485 31.9258 1.04351L22.0869 10.8824H12.4117C11.9892 10.8824 11.5983 11.0254 11.3118 11.3119C11.0253 11.5984 10.8823 11.9893 10.8823 12.4118V22.087L1.0434 31.9259C0.436378 32.5329 0.436378 33.4671 1.0434 34.0741L10.8823 43.913V53.5882C10.8823 54.0107 11.0253 54.4016 11.3118 54.6881C11.5983 54.9747 11.9892 55.1177 12.4117 55.1177H22.0869L31.9258 64.9565C32.0582 65.089 32.2105 65.2082 32.3979 65.2915C32.5875 65.3757 32.7871 65.4118 32.9999 65.4118C33.2127 65.4118 33.4123 65.3757 33.6019 65.2915C33.7893 65.2082 33.9416 65.089 34.074 64.9565L43.9129 55.1177H53.5881C54.0106 55.1177 54.4015 54.9747 54.688 54.6881C54.9745 54.4016 55.1175 54.0107 55.1175 53.5882V43.913L64.9564 34.0741C65.5634 33.4671 65.5634 32.5329 64.9564 31.9259L55.1175 22.087V12.4118C55.1175 11.9893 54.9745 11.5984 54.688 11.3119C54.4015 11.0254 54.0106 10.8824 53.5881 10.8824H43.9129L34.074 1.04351ZM23.7799 13.4859L32.9999 4.26594L42.2199 13.4859C42.3523 13.6184 42.5047 13.7376 42.6921 13.8209C42.8816 13.9051 43.0813 13.9412 43.294 13.9412H52.0587V22.7059C52.0587 22.9186 52.0948 23.1183 52.179 23.3079C52.2623 23.4952 52.3815 23.6476 52.514 23.78L61.734 33L52.514 42.22C52.3815 42.3524 52.2623 42.5048 52.179 42.6922C52.0948 42.8817 52.0587 43.0814 52.0587 43.2941V52.0588H43.294C43.0813 52.0588 42.8816 52.0949 42.6921 52.1791C42.5047 52.2624 42.3523 52.3816 42.2199 52.5141L32.9999 61.7341L23.7799 52.5141C23.6475 52.3816 23.4951 52.2624 23.3077 52.1791C23.1182 52.0949 22.9185 52.0588 22.7058 52.0588H13.9411V43.2941C13.9411 43.0814 13.905 42.8817 13.8208 42.6922C13.7375 42.5048 13.6183 42.3524 13.4858 42.22L4.26583 33L13.4858 23.78C13.6183 23.6476 13.7375 23.4952 13.8208 23.3079C13.905 23.1183 13.9411 22.9186 13.9411 22.7059V13.9412H22.7058C22.9185 13.9412 23.1182 13.9051 23.3077 13.8209C23.4951 13.7376 23.6475 13.6184 23.7799 13.4859Z" fill="url(#paint3_linear_151_643)"/>
<defs>
<linearGradient id="paint0_linear_151_643" x1="-5.9011" y1="29.8648" x2="32.2713" y2="72.6883" gradientUnits="userSpaceOnUse">
<stop stop-color="#EBDCAB"/>
<stop offset="1" stop-color="#BA9725"/>
</linearGradient>
<linearGradient id="paint1_linear_151_643" x1="-5.9011" y1="29.8648" x2="32.2713" y2="72.6883" gradientUnits="userSpaceOnUse">
<stop stop-color="#EBDCAB"/>
<stop offset="1" stop-color="#BA9725"/>
</linearGradient>
<linearGradient id="paint2_linear_151_643" x1="-5.9011" y1="29.8648" x2="32.2713" y2="72.6883" gradientUnits="userSpaceOnUse">
<stop stop-color="#EBDCAB"/>
<stop offset="1" stop-color="#BA9725"/>
</linearGradient>
<linearGradient id="paint3_linear_151_643" x1="-5.9011" y1="29.8648" x2="32.2713" y2="72.6883" gradientUnits="userSpaceOnUse">
<stop stop-color="#EBDCAB"/>
<stop offset="1" stop-color="#BA9725"/>
</linearGradient>
</defs>
</svg>
