<svg width="54" height="64" viewBox="0 0 54 64" fill="none" xmlns="http://www.w3.org/2000/svg">
<path d="M7.20006 56C4.91991 56 2.88034 57.2667 1.86692 59.2935L0.480203 62.0669C0.280432 62.4804 0.293261 62.9738 0.533775 63.3605C0.773732 63.76 1.20008 64 1.66715 64H52.3343C53.0675 64 53.6674 63.4001 53.6674 62.6668C53.6674 59.0401 53.3075 55.4001 52.601 51.8404L52.1211 49.4671C51.8276 48.014 51.1479 46.6937 50.1875 45.5871C50.7204 43.7869 51.0006 41.9203 51.0006 40.0002C51.0006 31.1999 45.1473 23.413 36.8539 20.8802L40.4142 13.8936C40.5743 13.5738 40.6011 13.2134 40.4939 12.8802C40.3874 12.5471 40.1474 12.2669 39.8271 12.1068L38.6401 11.5069L42.2669 4.37345C42.6 3.71999 42.3333 2.92031 41.6804 2.58659L36.9204 0.173021C36.6006 0.0128641 36.2401 -0.0139216 35.907 0.0932226C35.5738 0.199807 35.2937 0.439765 35.1335 0.760079L31.5068 7.8935L30.3199 7.29362C29.6664 6.96047 28.8667 7.22721 28.533 7.88012L16.1329 32.253C15.9727 32.5727 15.9459 32.9332 16.0531 33.2664C16.1597 33.5995 16.3996 33.8796 16.7199 34.0398L17.9069 34.6397L15.4933 39.3997C15.1602 40.0531 15.4269 40.8528 16.0798 41.1865L20.8398 43.6001C21.0267 43.6933 21.2399 43.7469 21.4397 43.7469C21.5731 43.7469 21.7198 43.7201 21.8532 43.6805C22.1863 43.5739 22.4665 43.3339 22.6266 43.0136L25.0402 38.2536L26.2271 38.8535C26.4269 38.9467 26.6273 39.0002 26.827 39.0002C27.3069 39.0002 27.7869 38.7335 28.014 38.267L33.134 28.2134C38.8137 29.2263 43.0005 34.1464 43.0005 39.9997C43.0005 40.9333 42.8939 41.853 42.6808 42.7464C42.6406 42.7464 42.5876 42.7598 42.5474 42.7732C42.3872 42.8 42.2405 42.8396 42.0943 42.8664C41.8543 42.92 41.6144 42.973 41.3878 43.0399C41.2276 43.0935 41.0809 43.1465 40.9213 43.2001C40.7081 43.2799 40.4944 43.3602 40.2812 43.4534C40.1345 43.5198 39.9877 43.6002 39.8415 43.68C39.6417 43.7866 39.4414 43.9065 39.255 44.0265C39.1216 44.1197 38.9749 44.2135 38.8415 44.3067C38.6545 44.44 38.4816 44.5868 38.308 44.7336C38.188 44.8401 38.0547 44.9467 37.9481 45.0533C37.7745 45.2135 37.6149 45.3999 37.4682 45.5734C37.3616 45.6934 37.255 45.8 37.1613 45.9199C37.0011 46.1331 36.8543 46.3468 36.7081 46.5734C36.6417 46.68 36.5614 46.7866 36.495 46.9065C36.2952 47.2531 36.1216 47.613 35.9615 47.9997L34.6546 51.2664L31.9614 49.3066L32.2415 49.3334C32.2951 49.3334 32.3347 49.3468 32.3883 49.3468C33.0685 49.3468 33.6416 48.8401 33.7081 48.147C33.7879 47.4137 33.2549 46.7603 32.5211 46.6804L7.13399 44.0136C6.38733 43.9338 5.74727 44.4667 5.66742 45.2005C5.58762 45.9338 6.12054 46.5872 6.85436 46.6671L27.0672 48.7871C27.1604 49.0003 27.2804 49.2006 27.4807 49.3474L33.6274 53.8139L32.7597 55.9998L7.20006 56ZM3.82677 61.3331L4.25367 60.4932C4.81339 59.3599 5.93396 58.6668 7.2001 58.6668H33.6672C34.2141 58.6668 34.7074 58.3337 34.9072 57.827L36.7737 53.1467C36.7871 53.1333 36.7871 53.1065 36.8005 53.0931C36.8139 53.0663 36.8407 53.0396 36.8407 53.0133L38.454 48.9732C39.3206 46.7996 41.4004 45.3599 43.7341 45.3332C43.7475 45.3332 43.7609 45.3198 43.7877 45.3198C43.8011 45.3198 43.8145 45.3332 43.8279 45.3332C45.3077 45.3332 46.7079 45.8935 47.7743 46.8935C48.6677 47.7333 49.2676 48.8136 49.5076 50L49.9875 52.3733C50.574 55.3198 50.9077 58.3332 50.9875 61.3465H3.82755L3.82677 61.3331ZM36.9067 3.12028L39.28 4.33345L36.2532 10.2799L33.8799 9.0667L36.9067 3.12028ZM20.8396 40.5874L19.3865 39.8541H19.3731L18.4529 39.3876L20.2659 35.8273L22.6392 37.0405L20.8396 40.5874ZM26.2398 35.8541L25.0528 35.2542L20.2928 32.8407L19.1059 32.2408L30.2929 10.2408L31.4798 10.8407L36.2265 13.2542L37.4135 13.8541L26.2398 35.8541ZM34.3865 25.7341L35.6264 23.3073C43.04 25.3608 48.3328 32.2141 48.3328 40.0015C48.3328 41.2683 48.1861 42.5217 47.9193 43.7214C47.1325 43.2817 46.2793 42.9747 45.3859 42.8012C45.56 41.8949 45.6666 40.9479 45.6666 40.0015C45.6666 33.1081 40.9333 27.2816 34.3865 25.7348V25.7341Z" fill="url(#paint0_linear_152_684)"/>
<defs>
<linearGradient id="paint0_linear_152_684" x1="-4.99736" y1="28.9204" x2="32.8373" y2="64.3024" gradientUnits="userSpaceOnUse">
<stop stop-color="#EBDCAB"/>
<stop offset="1" stop-color="#BA9725"/>
</linearGradient>
</defs>
</svg>
